<svg width="64" height="32" viewBox="0 0 64 32" fill="none" xmlns="http://www.w3.org/2000/svg">
<path d="M5.3406 13.5827C7.73987 12.1969 8.96087 10.6706 9.57137 8.88185C8.85328 9.37956 8.003 9.65165 7.12937 9.66329C3.41142 9.66329 2.62998 6.85499 2.62998 5.23716C2.62767 4.65896 2.74476 4.08651 2.97393 3.55566C3.20309 3.02481 3.53939 2.547 3.96176 2.15213C4.38414 1.75727 4.88349 1.45386 5.42855 1.26091C5.97361 1.06796 6.55263 0.989626 7.12937 1.03081C7.72037 1.00892 8.30959 1.10838 8.86067 1.32304C9.41174 1.53771 9.91298 1.86302 10.3335 2.27892C10.7539 2.69481 11.0847 3.19246 11.3054 3.74115C11.5261 4.28985 11.632 4.87794 11.6165 5.46915C11.6841 7.37864 11.1874 9.26569 10.1884 10.8944C9.18949 12.5232 7.73262 13.8213 5.99994 14.6267L5.3406 13.5827ZM4.18675 5.37758C4.16774 5.76988 4.2307 6.16185 4.3716 6.52847C4.51251 6.89509 4.72828 7.22833 5.00515 7.50692C5.28201 7.7855 5.6139 8.00333 5.97964 8.14651C6.34538 8.28969 6.73695 8.35508 7.12937 8.3385C9.10128 8.3385 10.0354 7.06866 10.0964 5.45084C10.1095 5.05363 10.0424 4.65786 9.89906 4.28719C9.75569 3.91653 9.53902 3.5786 9.26202 3.29362C8.98502 3.00864 8.65338 2.78247 8.28693 2.62864C7.92049 2.4748 7.52678 2.39647 7.12937 2.39833C6.73701 2.38802 6.34671 2.45831 5.9826 2.60486C5.6185 2.75141 5.28833 2.9711 5.01251 3.25034C4.7367 3.52959 4.52111 3.86245 4.37908 4.22834C4.23705 4.59424 4.17159 4.98538 4.18675 5.37758V5.37758Z" fill="#B88F34"/>
<path d="M61.525 30.75C61.444 30.75 61.3664 30.7178 61.3091 30.6606C61.2519 30.6033 61.2197 30.5257 61.2197 30.4447V17.6242C61.2197 16.894 60.9296 16.1937 60.4133 15.6773C59.8969 15.161 59.1966 14.8709 58.4664 14.8709H20.6153C19.8851 14.8709 19.1848 15.161 18.6684 15.6773C18.152 16.1937 17.862 16.894 17.862 17.6242V30.4447C17.862 30.5257 17.8298 30.6033 17.7726 30.6606C17.7153 30.7178 17.6377 30.75 17.5567 30.75C17.4758 30.75 17.3981 30.7178 17.3409 30.6606C17.2836 30.6033 17.2515 30.5257 17.2515 30.4447V17.6242C17.2515 16.7321 17.6059 15.8765 18.2367 15.2456C18.8676 14.6148 19.7232 14.2604 20.6153 14.2604H58.4664C58.9081 14.2604 59.3455 14.3474 59.7536 14.5164C60.1618 14.6855 60.5326 14.9333 60.845 15.2456C61.1573 15.558 61.4051 15.9288 61.5742 16.3369C61.7432 16.7451 61.8302 17.1825 61.8302 17.6242V30.4447C61.8302 30.5257 61.7981 30.6033 61.7408 30.6606C61.6836 30.7178 61.6059 30.75 61.525 30.75Z" fill="#B88F34"/>
<path d="M58.6251 13.1676C58.5441 13.1676 58.4665 13.1354 58.4092 13.0782C58.352 13.0209 58.3198 12.9433 58.3198 12.8623V3.34463C58.3198 2.25183 57.2637 1.3605 55.9694 1.3605H23.1001C21.8058 1.3605 20.7496 2.25183 20.7496 3.34463V12.8623C20.7496 12.9433 20.7175 13.0209 20.6602 13.0782C20.603 13.1354 20.5253 13.1676 20.4444 13.1676C20.3634 13.1676 20.2858 13.1354 20.2285 13.0782C20.1713 13.0209 20.1391 12.9433 20.1391 12.8623V3.34463C20.1391 1.91606 21.47 0.75 23.1001 0.75H55.9694C57.5994 0.75 58.9303 1.91606 58.9303 3.34463V12.8623C58.9303 12.9433 58.8982 13.0209 58.8409 13.0782C58.7837 13.1354 58.706 13.1676 58.6251 13.1676Z" fill="#B88F34"/>
<path d="M61.525 26.0614H17.5689C17.488 26.0614 17.4103 26.0292 17.3531 25.972C17.2958 25.9147 17.2637 25.8371 17.2637 25.7561C17.2637 25.6752 17.2958 25.5975 17.3531 25.5403C17.4103 25.483 17.488 25.4509 17.5689 25.4509H61.525C61.6059 25.4509 61.6836 25.483 61.7408 25.5403C61.7981 25.5975 61.8302 25.6752 61.8302 25.7561C61.8302 25.8371 61.7981 25.9147 61.7408 25.972C61.6836 26.0292 61.6059 26.0614 61.525 26.0614Z" fill="#B88F34"/>
<path d="M36.8424 13.1676C36.7619 13.166 36.6852 13.1334 36.6283 13.0765C36.5714 13.0195 36.5387 12.9428 36.5372 12.8623V7.68529C36.5372 7.39223 36.4207 7.11117 36.2135 6.90394C36.0063 6.69671 35.7252 6.58029 35.4322 6.58029H27.6483C27.3552 6.58029 27.0741 6.69671 26.8669 6.90394C26.6597 7.11117 26.5433 7.39223 26.5433 7.68529V12.8623C26.5433 12.9433 26.5111 13.0209 26.4539 13.0782C26.3966 13.1354 26.319 13.1676 26.238 13.1676C26.1571 13.1676 26.0794 13.1354 26.0222 13.0782C25.9649 13.0209 25.9328 12.9433 25.9328 12.8623V7.68529C25.9328 7.23031 26.1135 6.79397 26.4352 6.47225C26.757 6.15053 27.1933 5.96979 27.6483 5.96979H35.4322C35.8871 5.96979 36.3235 6.15053 36.6452 6.47225C36.9669 6.79397 37.1477 7.23031 37.1477 7.68529V12.8623C37.1477 12.9433 37.1155 13.0209 37.0583 13.0782C37.001 13.1354 36.9234 13.1676 36.8424 13.1676Z" fill="#B88F34"/>
<path d="M35.3284 13.1127C35.2474 13.1127 35.1698 13.0805 35.1125 13.0233C35.0553 12.966 35.0231 12.8884 35.0231 12.8074V9.13832C35.0215 8.95156 34.9462 8.77299 34.8135 8.6415C34.6809 8.51001 34.5017 8.43624 34.3149 8.43625H28.7655C28.5798 8.43784 28.4021 8.51232 28.2708 8.64364C28.1395 8.77496 28.065 8.95261 28.0634 9.13832V12.8318C28.0634 12.9128 28.0313 12.9904 27.974 13.0477C27.9168 13.1049 27.8391 13.1371 27.7582 13.1371C27.6772 13.1371 27.5996 13.1049 27.5423 13.0477C27.4851 12.9904 27.4529 12.9128 27.4529 12.8318V9.13832C27.4529 8.96595 27.4869 8.79527 27.5528 8.63602C27.6188 8.47677 27.7155 8.33207 27.8374 8.21019C27.9592 8.0883 28.1039 7.99162 28.2632 7.92566C28.4224 7.85969 28.5931 7.82574 28.7655 7.82574H34.3149C34.6636 7.82574 34.9981 7.96383 35.2452 8.20982C35.4924 8.4558 35.632 8.78964 35.6336 9.13832V12.8318C35.6275 12.9085 35.5926 12.98 35.536 13.0321C35.4794 13.0841 35.4053 13.1129 35.3284 13.1127V13.1127Z" fill="#B88F34"/>
<path d="M51.0121 13.1127C50.9312 13.1127 50.8535 13.0805 50.7963 13.0233C50.739 12.966 50.7069 12.8884 50.7069 12.8074V9.13832C50.7069 8.95212 50.6329 8.77354 50.5013 8.64188C50.3696 8.51021 50.191 8.43625 50.0048 8.43625H44.4554C44.2702 8.43786 44.0932 8.51253 43.9629 8.64403C43.8325 8.77552 43.7594 8.95317 43.7594 9.13832V12.8318C43.7594 12.9128 43.7272 12.9904 43.67 13.0477C43.6127 13.1049 43.5351 13.1371 43.4541 13.1371C43.3732 13.1371 43.2955 13.1049 43.2383 13.0477C43.1811 12.9904 43.1489 12.9128 43.1489 12.8318V9.13832C43.1489 8.7902 43.2872 8.45634 43.5333 8.21019C43.7795 7.96403 44.1134 7.82574 44.4615 7.82574H50.0109C50.359 7.82574 50.6929 7.96403 50.9391 8.21019C51.1852 8.45634 51.3235 8.7902 51.3235 9.13832V12.8318C51.3173 12.9096 51.2816 12.982 51.2237 13.0342C51.1658 13.0864 51.0901 13.1145 51.0121 13.1127Z" fill="#B88F34"/>
<path d="M52.5323 13.1676C52.4518 13.166 52.3751 13.1334 52.3182 13.0765C52.2613 13.0195 52.2286 12.9428 52.227 12.8623V7.68529C52.227 7.39223 52.1106 7.11117 51.9034 6.90394C51.6962 6.69671 51.4151 6.58029 51.122 6.58029H43.3382C43.193 6.58029 43.0494 6.60887 42.9153 6.6644C42.7812 6.71993 42.6594 6.80133 42.5568 6.90394C42.4542 7.00655 42.3728 7.12836 42.3173 7.26243C42.2617 7.39649 42.2332 7.54018 42.2332 7.68529V12.8623C42.2332 12.9433 42.201 13.0209 42.1437 13.0782C42.0865 13.1354 42.0089 13.1676 41.9279 13.1676C41.8469 13.1676 41.7693 13.1354 41.7121 13.0782C41.6548 13.0209 41.6227 12.9433 41.6227 12.8623V7.68529C41.6227 7.23031 41.8034 6.79397 42.1251 6.47225C42.4468 6.15053 42.8832 5.96979 43.3382 5.96979H51.122C51.577 5.96979 52.0134 6.15053 52.3351 6.47225C52.6568 6.79397 52.8375 7.23031 52.8375 7.68529V12.8623C52.8375 12.9433 52.8054 13.0209 52.7481 13.0782C52.6909 13.1354 52.6133 13.1676 52.5323 13.1676Z" fill="#B88F34"/>
</svg>
