<svg width="76" height="32" viewBox="0 0 76 32" fill="none" xmlns="http://www.w3.org/2000/svg">
<path d="M47.1999 30.1878C45.3464 30.1783 43.5095 29.8384 41.7754 29.1841C34.5804 26.5396 32.9509 20.7373 32.8888 20.4949L32.8155 20.2242L33.0467 20.0663C35.2995 18.7146 37.9062 18.0703 40.5293 18.2168H40.783L40.8845 18.4255C41.2812 19.2086 41.7334 19.9624 42.2378 20.6809C47.0589 27.5207 53.7126 27.5884 53.8817 27.5884H55.1448L54.0904 28.2876C52.024 29.5703 49.6316 30.2301 47.1999 30.1878V30.1878ZM33.7346 20.5625C34.1519 21.7297 36.1254 26.2689 42.0461 28.4567C43.7188 29.1176 45.5059 29.4404 47.3042 29.4066C49.1024 29.3727 50.8761 28.9828 52.5228 28.2594C50.2166 27.9154 45.3842 26.5678 41.5668 21.132C41.0892 20.4471 40.6542 19.7334 40.2643 18.995C37.9876 18.933 35.735 19.4738 33.7346 20.5625V20.5625Z" fill="#B88F34"/>
<path d="M60.5185 30.1879C58.0883 30.232 55.6972 29.572 53.6337 28.2876L52.6243 27.5602H53.8818C54.0509 27.5602 60.6482 27.4926 65.4975 20.6528C65.998 19.9328 66.4483 19.1792 66.8451 18.3973L66.9523 18.1887H67.1835C69.8157 18.04 72.432 18.6843 74.6942 20.0382L74.9254 20.1961L74.8521 20.4667C74.7844 20.7092 73.1605 26.5114 65.9655 29.156C64.2258 29.8215 62.3811 30.171 60.5185 30.1879V30.1879ZM55.2012 28.2425C56.8466 28.9667 58.6191 29.3575 60.4164 29.3923C62.2137 29.4272 64.0001 29.1054 65.6723 28.4455C71.6098 26.2577 73.5665 21.7298 73.9837 20.5513C71.9738 19.4619 69.711 18.9249 67.4259 18.995C67.0388 19.7314 66.6037 20.4416 66.1234 21.1208C62.306 26.534 57.5018 27.9042 55.2012 28.2425V28.2425Z" fill="#B88F34"/>
<path d="M53.8817 28.3609H52.6525L53.6618 27.656C53.7182 27.6222 59.1764 23.7089 59.1764 15.3016C59.1785 13.9879 59.0386 12.6777 58.7592 11.394L58.7084 11.1685L58.8776 11.0162C63.4731 6.82665 68.3224 6.77026 68.5311 6.77026H68.8074L68.9032 7.03528C68.9822 7.25519 70.7865 12.5161 67.5612 18.8145C67.1439 19.6215 66.673 20.3995 66.1515 21.1433V21.1433C61.1331 28.203 54.4456 28.3609 53.8817 28.3609ZM59.5204 11.4448C59.7787 12.7122 59.9091 14.0025 59.9095 15.296C59.9095 21.9722 56.7236 25.8742 55.0489 27.4643C57.2142 27.1204 61.8154 25.7727 65.4523 20.6979C65.9528 19.9779 66.4031 19.2243 66.8 18.4424C68.5681 15.1055 69.0612 11.2391 68.1871 7.56532C64.9712 7.90947 61.947 9.26364 59.5486 11.4335L59.5204 11.4448Z" fill="#B88F34"/>
<path d="M53.8366 28.361C53.2728 28.361 46.5571 28.2087 41.5668 21.1209C41.0425 20.3769 40.5714 19.5968 40.1571 18.7864C36.9318 12.4936 38.7362 7.23273 38.8151 7.01282L38.911 6.7478H39.1873C39.3903 6.7478 44.2283 6.80419 48.8125 10.9712L48.9817 11.1234L48.9366 11.349C48.6493 12.645 48.5056 13.9686 48.508 15.2961C48.508 23.7541 54.0283 27.611 54.0847 27.6505L55.1053 28.3553H53.8648L53.8366 28.361ZM39.4748 7.55414C38.598 11.2272 39.0891 15.0939 40.8563 18.4312C41.253 19.2144 41.7052 19.9681 42.2096 20.6867C45.8184 25.7615 50.4534 27.1092 52.6243 27.4531C50.9327 25.8574 47.7186 21.9554 47.7186 15.2848C47.7181 13.9835 47.8503 12.6855 48.1133 11.411C45.7165 9.24066 42.6909 7.88979 39.4748 7.55414V7.55414Z" fill="#B88F34"/>
<path d="M53.8592 28.4455L53.6393 28.2933C53.3968 28.1241 47.7243 24.1488 47.7243 15.2848C47.721 13.9064 47.8685 12.5318 48.1641 11.1855C49.5117 5.12384 53.4363 2.28757 53.5998 2.16352L53.831 2L54.0565 2.16352C54.2257 2.2763 58.1559 5.12384 59.4979 11.1855C59.7932 12.5242 59.9407 13.8913 59.9377 15.2622C59.9377 24.1263 54.299 28.1016 54.0847 28.2651L53.8592 28.4455ZM53.8592 2.99241C51.3657 5.17666 49.6483 8.11098 48.9648 11.3546C48.6775 12.6506 48.5338 13.9743 48.5362 15.3017C48.5362 22.7504 52.8442 26.6524 53.8874 27.4869C54.9193 26.6524 59.1765 22.7504 59.1765 15.3017C59.1786 13.9879 59.0387 12.6778 58.7592 11.3941C58.0742 8.13198 56.344 5.18228 53.831 2.99241H53.8592Z" fill="#B88F34"/>
<path d="M5.20844 9.61225C5.70621 10.1631 6.40121 10.4954 7.14251 10.537C7.42255 10.5448 7.70122 10.4953 7.96138 10.3914C8.22154 10.2875 8.45767 10.1314 8.65524 9.93277C8.8528 9.73415 9.00761 9.49719 9.11014 9.23648C9.21266 8.97577 9.26073 8.69683 9.25139 8.41684C9.25528 8.14223 9.20197 7.86982 9.09485 7.61693C8.98774 7.36404 8.82917 7.13621 8.62922 6.94793C8.42928 6.75965 8.19234 6.61505 7.93347 6.52332C7.6746 6.43158 7.39948 6.39473 7.1256 6.4151H5.08439V2.11841H9.59535V3.05443H6.21213V5.46216H7.11432C9.71376 5.46216 10.334 7.29474 10.334 8.5127C10.3319 8.9244 10.2454 9.3313 10.0799 9.70826C9.91429 10.0852 9.67318 10.4242 9.37143 10.7043C9.06968 10.9844 8.71369 11.1996 8.32547 11.3367C7.93725 11.4737 7.52504 11.5297 7.11432 11.5012C6.61596 11.5076 6.12291 11.3984 5.67385 11.1822C5.22479 10.966 4.83195 10.6486 4.52615 10.2551L5.20844 9.61225Z" fill="#B88F34"/>
<path d="M19.0966 6.73659C19.0966 8.7496 18.2733 11.4844 15.5329 11.4844C12.7925 11.4844 11.9861 8.7496 11.9861 6.73659C11.9861 4.72357 12.8094 2.01135 15.5329 2.01135C18.2564 2.01135 19.0966 4.80251 19.0966 6.73659ZM17.9688 6.73659C17.9688 5.78928 17.6812 2.96993 15.5273 2.96993C13.3733 2.96993 13.0913 5.78928 13.0913 6.73659C13.0913 7.68389 13.3958 10.5371 15.5329 10.5371C17.67 10.5371 17.9744 7.67825 17.9744 6.73659H17.9688Z" fill="#B88F34"/>
<path d="M27.8422 6.73659C27.8422 8.7496 27.0246 11.4844 24.2842 11.4844C21.5438 11.4844 20.7374 8.7496 20.7374 6.73659C20.7374 4.72357 21.5607 2.01135 24.2842 2.01135C27.0077 2.01135 27.8422 4.80251 27.8422 6.73659ZM26.7145 6.73659C26.7145 5.78928 26.4269 2.96993 24.2785 2.96993C22.1302 2.96993 21.8426 5.78928 21.8426 6.73659C21.8426 7.68389 22.1753 10.5371 24.2842 10.5371C26.393 10.5371 26.7201 7.67825 26.7201 6.73659H26.7145Z" fill="#B88F34"/>
<path d="M4.6953 16.4351C5.74974 16.7678 7.041 17.2414 7.041 18.6906C7.041 19.8183 5.96965 20.6077 4.55433 20.6077C3.65828 20.6346 2.77285 20.4079 2 19.9536C2.12405 19.6773 2.26502 19.4405 2.38907 19.1642C3.03123 19.5118 3.74558 19.7048 4.47539 19.7281C5.20842 19.7281 5.8456 19.339 5.8456 18.73C5.8456 17.9068 5.05618 17.67 4.18218 17.3824C3.18413 17.0497 2.0733 16.7001 2.0733 15.3806C2.0733 14.1627 2.9755 13.4691 4.26676 13.4691C5.10308 13.4758 5.92744 13.6684 6.68013 14.033C6.52788 14.3544 6.4433 14.5969 6.29105 14.8844C5.73175 14.6355 5.13564 14.4794 4.52614 14.4221C3.8213 14.4221 3.19541 14.6194 3.15594 15.3243C3.11646 16.0291 3.85513 16.1757 4.6953 16.4351Z" fill="#B88F34"/>
<path d="M8.69879 16.9764C8.69879 15.4878 9.52204 13.4071 12.082 13.4071C12.5071 13.3857 12.9314 13.462 13.3224 13.6301C13.7134 13.7982 14.0606 14.0537 14.3375 14.3769C14.3939 14.1683 14.5349 13.8131 14.6307 13.5199H15.2397V23.2635H14.1119V20.072C13.515 20.3853 12.852 20.5516 12.1779 20.557C9.50513 20.557 8.69879 18.4312 8.69879 16.9764ZM9.82653 16.9764C9.82653 17.7658 10.2269 19.5984 12.2568 19.5984C12.911 19.5668 13.5444 19.3582 14.0894 18.995V15.3806C13.8554 15.0928 13.5607 14.8601 13.2263 14.6993C12.892 14.5385 12.5263 14.4534 12.1553 14.4502C10.1423 14.4502 9.85473 16.2941 9.85473 16.9764H9.82653Z" fill="#B88F34"/>
<path d="M18.6116 20.4725H17.4839V13.5312H18.059L18.3353 14.3939C18.936 13.7949 19.7428 13.448 20.5908 13.4241C21.0237 13.383 21.4597 13.4562 21.8555 13.6362C22.2513 13.8163 22.5929 14.097 22.8463 14.4503C23.1405 14.1282 23.4984 13.8706 23.8974 13.694C24.2963 13.5173 24.7275 13.4254 25.1638 13.4241C27.7012 13.4241 27.8253 15.3356 27.8253 16.8919V20.4725H26.6863V16.5592C26.6863 15.8205 26.6863 14.4898 25.1187 14.377C24.73 14.3579 24.3433 14.4435 23.9991 14.6251C23.6549 14.8066 23.3658 15.0773 23.1621 15.4089C23.2384 15.8994 23.2705 16.3957 23.2579 16.8919V20.4725H22.1302V16.6269C22.0907 15.9333 22.1584 14.518 20.5626 14.4052C20.174 14.4035 19.7914 14.501 19.4509 14.6885C19.1105 14.876 18.8236 15.1472 18.6173 15.4766L18.6116 20.4725Z" fill="#B88F34"/>
</svg>
