<svg width="88" height="32" viewBox="0 0 88 32" fill="none" xmlns="http://www.w3.org/2000/svg">
<g clip-path="url(#clip0)">
<path d="M85.8472 30.8082C85.7674 30.8082 85.6908 30.7765 85.6343 30.72C85.5779 30.6636 85.5462 30.587 85.5462 30.5072V17.8875C85.5446 17.1662 85.2573 16.4749 84.7473 15.9649C84.2373 15.4549 83.546 15.1676 82.8247 15.1661H45.4955C45.1377 15.1653 44.7831 15.2351 44.4522 15.3715C44.1214 15.5079 43.8207 15.7082 43.5673 15.961C43.314 16.2138 43.113 16.5141 42.9758 16.8446C42.8387 17.1752 42.7681 17.5296 42.7681 17.8875V30.5312C42.7681 30.6111 42.7364 30.6876 42.6799 30.7441C42.6235 30.8006 42.5469 30.8323 42.4671 30.8323C42.3872 30.8323 42.3106 30.8006 42.2542 30.7441C42.1977 30.6876 42.166 30.6111 42.166 30.5312V17.8875C42.166 17.0071 42.5153 16.1626 43.1373 15.5395C43.7593 14.9164 44.6031 14.5656 45.4835 14.564H82.8127C83.2499 14.5632 83.6831 14.6485 84.0873 14.8151C84.4916 14.9817 84.8591 15.2263 85.1688 15.5349C85.4785 15.8435 85.7244 16.2101 85.8925 16.6138C86.0606 17.0174 86.1475 17.4502 86.1482 17.8875V30.5312C86.1422 30.6068 86.1078 30.6774 86.052 30.7287C85.9962 30.78 85.923 30.8084 85.8472 30.8082Z" fill="#B88F34"/>
<path d="M82.9814 13.4681C82.902 13.4665 82.8263 13.4343 82.7702 13.3782C82.7141 13.3221 82.6819 13.2464 82.6803 13.167V3.74443C82.6803 2.67272 81.6447 1.79367 80.3623 1.79367H47.9461C46.6697 1.79367 45.6281 2.67272 45.6281 3.74443V13.167C45.6281 13.2469 45.5964 13.3235 45.5399 13.3799C45.4835 13.4364 45.4069 13.4681 45.327 13.4681C45.2477 13.4665 45.172 13.4343 45.1159 13.3782C45.0598 13.3221 45.0275 13.2464 45.026 13.167V3.74443C45.026 2.33555 46.3385 1.19159 47.9461 1.19159H80.3623C81.9759 1.19159 83.2824 2.33555 83.2824 3.74443V13.167C83.2824 13.2469 83.2507 13.3235 83.1942 13.3799C83.1378 13.4364 83.0612 13.4681 82.9814 13.4681Z" fill="#B88F34"/>
<path d="M85.8472 26.1841H42.4671C42.3872 26.1841 42.3106 26.1524 42.2542 26.0959C42.1977 26.0395 42.166 25.9629 42.166 25.8831C42.166 25.8032 42.1977 25.7267 42.2542 25.6702C42.3106 25.6137 42.3872 25.582 42.4671 25.582H85.8472C85.927 25.582 86.0036 25.6137 86.0601 25.6702C86.1165 25.7267 86.1482 25.8032 86.1482 25.8831C86.1482 25.9629 86.1165 26.0395 86.0601 26.0959C86.0036 26.1524 85.927 26.1841 85.8472 26.1841V26.1841Z" fill="#B88F34"/>
<path d="M61.5051 13.4678C61.4253 13.4678 61.3487 13.4361 61.2923 13.3796C61.2358 13.3232 61.2041 13.2466 61.2041 13.1668V8.06112C61.2025 7.77154 61.0863 7.49436 60.881 7.29016C60.6757 7.08596 60.3979 6.97134 60.1083 6.97135H52.4377C52.1482 6.97134 51.8704 7.08596 51.665 7.29016C51.4597 7.49436 51.3435 7.77154 51.342 8.06112V13.1668C51.342 13.2466 51.3102 13.3232 51.2538 13.3796C51.1973 13.4361 51.1208 13.4678 51.0409 13.4678C50.9616 13.4663 50.8859 13.4341 50.8297 13.3779C50.7736 13.3218 50.7414 13.2461 50.7399 13.1668V8.06112C50.7415 7.61186 50.921 7.18154 51.2393 6.86443C51.5575 6.54732 51.9885 6.36926 52.4377 6.36926H60.1083C60.5576 6.36926 60.9885 6.54732 61.3067 6.86443C61.625 7.18154 61.8046 7.61186 61.8062 8.06112V13.1668C61.8046 13.2461 61.7724 13.3218 61.7163 13.3779C61.6602 13.4341 61.5845 13.4663 61.5051 13.4678Z" fill="#B88F34"/>
<path d="M60.0059 13.4384C59.9261 13.4384 59.8495 13.4067 59.793 13.3502C59.7366 13.2937 59.7049 13.2172 59.7049 13.1373V9.52483C59.7049 9.34119 59.6319 9.16508 59.5021 9.03523C59.3722 8.90538 59.1961 8.83243 59.0125 8.83243H53.5335C53.4426 8.83243 53.3525 8.85034 53.2685 8.88514C53.1845 8.91993 53.1082 8.97093 53.0439 9.03523C52.9796 9.09952 52.9286 9.17585 52.8938 9.25986C52.859 9.34386 52.8411 9.4339 52.8411 9.52483V13.1373C52.8411 13.2172 52.8094 13.2937 52.7529 13.3502C52.6965 13.4067 52.6199 13.4384 52.5401 13.4384C52.4607 13.4368 52.385 13.4046 52.3289 13.3485C52.2728 13.2924 52.2406 13.2167 52.239 13.1373V9.52483C52.239 9.18151 52.3754 8.85225 52.6182 8.60949C52.8609 8.36673 53.1902 8.23035 53.5335 8.23035H59.0125C59.1825 8.23035 59.3508 8.26383 59.5079 8.32888C59.6649 8.39394 59.8076 8.48929 59.9278 8.60949C60.048 8.7297 60.1434 8.8724 60.2084 9.02945C60.2735 9.18651 60.307 9.35483 60.307 9.52483V13.1373C60.3054 13.2167 60.2732 13.2924 60.2171 13.3485C60.161 13.4046 60.0853 13.4368 60.0059 13.4384V13.4384Z" fill="#B88F34"/>
<path d="M75.4856 13.4384C75.4058 13.4384 75.3292 13.4067 75.2727 13.3502C75.2163 13.2937 75.1846 13.2172 75.1846 13.1373V9.52483C75.1846 9.4339 75.1666 9.34386 75.1318 9.25986C75.0971 9.17585 75.0461 9.09952 74.9818 9.03523C74.9175 8.97093 74.8411 8.91993 74.7571 8.88514C74.6731 8.85034 74.5831 8.83243 74.4922 8.83243H69.0132C68.8296 8.83243 68.6535 8.90538 68.5236 9.03523C68.3938 9.16508 68.3208 9.34119 68.3208 9.52483V13.1373C68.3208 13.2172 68.2891 13.2937 68.2327 13.3502C68.1762 13.4067 68.0996 13.4384 68.0198 13.4384C67.9399 13.4384 67.8634 13.4067 67.8069 13.3502C67.7505 13.2937 67.7188 13.2172 67.7188 13.1373V9.52483C67.7188 9.18151 67.8551 8.85225 68.0979 8.60949C68.3407 8.36673 68.6699 8.23035 69.0132 8.23035H74.4922C74.8355 8.23035 75.1647 8.36673 75.4075 8.60949C75.6503 8.85225 75.7866 9.18151 75.7866 9.52483V13.1373C75.7851 13.2167 75.7529 13.2924 75.6968 13.3485C75.6406 13.4046 75.565 13.4368 75.4856 13.4384Z" fill="#B88F34"/>
<path d="M76.9787 13.4684C76.8989 13.4684 76.8223 13.4366 76.7659 13.3802C76.7094 13.3237 76.6777 13.2472 76.6777 13.1673V8.06165C76.6761 7.77207 76.56 7.4949 76.3546 7.2907C76.1493 7.0865 75.8715 6.97187 75.5819 6.97188H67.9114C67.6218 6.97187 67.344 7.0865 67.1387 7.2907C66.9333 7.4949 66.8172 7.77207 66.8156 8.06165V13.1673C66.8156 13.2472 66.7839 13.3237 66.7274 13.3802C66.671 13.4366 66.5944 13.4684 66.5145 13.4684C66.4352 13.4668 66.3595 13.4346 66.3034 13.3785C66.2473 13.3224 66.215 13.2467 66.2135 13.1673V8.06165C66.2151 7.61239 66.3947 7.18207 66.7129 6.86496C67.0312 6.54785 67.4621 6.36979 67.9114 6.36979H75.5819C75.8054 6.36821 76.027 6.41075 76.234 6.49499C76.441 6.57923 76.6293 6.70351 76.7881 6.86069C76.947 7.01787 77.0733 7.20487 77.1597 7.41096C77.2461 7.61705 77.291 7.83817 77.2918 8.06165V13.1673C77.291 13.2077 77.2823 13.2474 77.2662 13.2844C77.25 13.3213 77.2267 13.3547 77.1976 13.3827C77.1686 13.4107 77.1343 13.4326 77.0967 13.4473C77.0592 13.462 77.0191 13.4692 76.9787 13.4684Z" fill="#B88F34"/>
<path d="M21.6054 8.51312V9.87383H16V8.51312H21.6054Z" fill="#B88F34"/>
<path d="M9.95955 14.9382H8.24964V12.0723H2V11.1692L8.58078 1H9.95955V10.6333H11.9404V12.0542H9.95955V14.9382ZM4.04107 10.6514H8.25566V4.09471L4.04107 10.6514Z" fill="#B88F34"/>
</g>
<path d="M25.9758 12.1504C26.6905 12.9734 27.6895 13.4721 28.7569 13.5387C29.161 13.5527 29.5636 13.4808 29.9397 13.3272C30.3158 13.1736 30.6574 12.9417 30.9434 12.6458C31.2293 12.35 31.4534 11.9966 31.6018 11.6074C31.7503 11.2182 31.8199 10.8016 31.8063 10.3835C31.8124 9.97542 31.7364 9.57049 31.583 9.19448C31.4296 8.81846 31.2023 8.47959 30.9155 8.19943C30.6287 7.91927 30.2886 7.70395 29.917 7.56718C29.5453 7.43042 29.1502 7.37519 28.7569 7.40501H25.8233V1H32.3003V2.38828H27.4212V5.9978H28.7203C32.4466 5.9978 33.3493 8.70495 33.3493 10.5223C33.3493 11.9485 32.4039 14.9396 28.7203 14.9396C28.0037 14.9494 27.2947 14.787 26.6491 14.465C26.0035 14.1431 25.439 13.6704 25 13.0843L25.9758 12.1504Z" fill="#B88F34"/>
<defs>
<clipPath id="clip0">
<rect width="85.3333" height="32" fill="white" transform="translate(1)"/>
</clipPath>
</defs>
</svg>
