<svg width="72" height="32" viewBox="0 0 72 32" fill="none" xmlns="http://www.w3.org/2000/svg">
<path d="M7.82023 14.5152H6.17489V3.72909L3.67032 5.25865L3 4.28972L7.52772 1.05389H7.82023V14.5152Z" fill="#B88F34"/>
<path d="M10.5015 2.91861C11.0242 2.32255 11.6653 1.84188 12.384 1.5072C13.1027 1.17251 13.8832 0.991154 14.6758 0.97467C17.0585 0.97467 18.844 2.40063 18.6855 5.1002C18.48 6.36055 17.8905 7.52675 16.9975 8.43963L13.0853 13.0588H18.3443V14.5091H10.2638L10.2212 14.3385L15.8641 7.52555C16.5016 6.84426 16.94 6.00116 17.1316 5.08801C17.351 3.918 16.9183 2.26657 14.6941 2.26657C13.5241 2.26657 12.4881 2.84548 11.3973 3.85706L10.5015 2.91861Z" fill="#B88F34"/>
<path d="M68.4722 30.6456C68.3914 30.6456 68.3139 30.6135 68.2568 30.5564C68.1997 30.4992 68.1676 30.4217 68.1676 30.3409V17.5438C68.1659 16.8144 67.875 16.1154 67.3587 15.6001C66.8423 15.0849 66.1426 14.7955 65.4131 14.7955H27.6313C27.2653 14.7906 26.902 14.8589 26.5627 14.9964C26.2234 15.1338 25.915 15.3377 25.6556 15.596C25.3961 15.8543 25.1909 16.1618 25.052 16.5005C24.913 16.8391 24.8432 17.2022 24.8464 17.5682V30.3653C24.8449 30.4456 24.8123 30.5222 24.7555 30.579C24.6987 30.6358 24.6221 30.6684 24.5418 30.67C24.4609 30.67 24.3834 30.6379 24.3263 30.5807C24.2692 30.5236 24.2371 30.4461 24.2371 30.3653V17.5682C24.2371 16.6777 24.5908 15.8237 25.2205 15.194C25.8502 14.5643 26.7042 14.2105 27.5948 14.2105H65.3766C66.2677 14.2105 67.1223 14.5641 67.753 15.1936C68.3837 15.8231 68.7388 16.6771 68.7404 17.5682V30.3653C68.7341 30.4355 68.7041 30.5015 68.6554 30.5524C68.6067 30.6033 68.5421 30.6362 68.4722 30.6456V30.6456Z" fill="#B88F34"/>
<path d="M65.5716 13.0892C65.4908 13.0892 65.4133 13.0571 65.3561 13C65.299 12.9429 65.2669 12.8654 65.2669 12.7845V3.25377C65.2669 2.16298 64.2127 1.27937 62.9208 1.27937H30.1115C28.8196 1.27937 27.7654 2.16298 27.7654 3.25377V12.7845C27.7654 12.8654 27.7333 12.9429 27.6761 13C27.619 13.0571 27.5415 13.0892 27.4607 13.0892C27.3799 13.0892 27.3024 13.0571 27.2452 13C27.1881 12.9429 27.156 12.8654 27.156 12.7845V3.25377C27.156 1.82781 28.4845 0.669983 30.1115 0.669983H62.9208C64.5539 0.669983 65.8763 1.82781 65.8763 3.25377V12.7845C65.8763 12.8654 65.8442 12.9429 65.787 13C65.7299 13.0571 65.6524 13.0892 65.5716 13.0892Z" fill="#B88F34"/>
<path d="M68.4722 25.9594H24.5661C24.4853 25.9594 24.4078 25.9273 24.3507 25.8702C24.2935 25.813 24.2614 25.7355 24.2614 25.6547C24.2614 25.5739 24.2935 25.4964 24.3507 25.4393C24.4078 25.3821 24.4853 25.35 24.5661 25.35H68.4722C68.5525 25.3516 68.6291 25.3842 68.686 25.441C68.7428 25.4978 68.7754 25.5744 68.7769 25.6547C68.7769 25.7355 68.7448 25.813 68.6877 25.8702C68.6305 25.9273 68.553 25.9594 68.4722 25.9594Z" fill="#B88F34"/>
<path d="M43.8348 13.0892C43.754 13.0892 43.6765 13.0571 43.6194 13C43.5622 12.9429 43.5301 12.8654 43.5301 12.7846V7.62307C43.5301 7.32892 43.4133 7.04682 43.2053 6.83883C42.9973 6.63084 42.7152 6.51399 42.421 6.51399H34.6575C34.3633 6.51399 34.0812 6.63084 33.8733 6.83883C33.6653 7.04682 33.5484 7.32892 33.5484 7.62307V12.7846C33.5484 12.8654 33.5163 12.9429 33.4592 13C33.402 13.0571 33.3245 13.0892 33.2437 13.0892C33.1629 13.0892 33.0854 13.0571 33.0283 13C32.9711 12.9429 32.939 12.8654 32.939 12.7846V7.62307C32.939 7.1673 33.1201 6.7302 33.4424 6.40793C33.7646 6.08566 34.2017 5.9046 34.6575 5.9046H42.421C42.8768 5.9046 43.3139 6.08566 43.6362 6.40793C43.9585 6.7302 44.1395 7.1673 44.1395 7.62307V12.7846C44.1395 12.8654 44.1074 12.9429 44.0503 13C43.9931 13.0571 43.9156 13.0892 43.8348 13.0892Z" fill="#B88F34"/>
<path d="M42.3175 13.0588C42.2366 13.0588 42.1591 13.0267 42.102 12.9695C42.0449 12.9124 42.0128 12.8349 42.0128 12.7541V9.09779C42.0161 9.00241 42 8.90736 41.9656 8.81835C41.9311 8.72935 41.8791 8.64823 41.8124 8.5799C41.7458 8.51157 41.666 8.45744 41.5779 8.42077C41.4898 8.3841 41.3952 8.36565 41.2998 8.36653H35.7544C35.569 8.36812 35.3917 8.44246 35.2606 8.57354C35.1295 8.70462 35.0552 8.88195 35.0536 9.06732V12.7236C35.0536 12.8044 35.0215 12.8819 34.9644 12.9391C34.9072 12.9962 34.8297 13.0283 34.7489 13.0283C34.6681 13.0283 34.5906 12.9962 34.5335 12.9391C34.4763 12.8819 34.4442 12.8044 34.4442 12.7236V9.06732C34.4458 8.72033 34.5844 8.38801 34.8297 8.14265C35.0751 7.89729 35.4074 7.75874 35.7544 7.75714H41.2998C41.6468 7.75874 41.9791 7.89729 42.2244 8.14265C42.4698 8.38801 42.6084 8.72033 42.61 9.06732V12.7236C42.6142 12.7651 42.6098 12.807 42.5971 12.8468C42.5845 12.8865 42.5638 12.9232 42.5364 12.9546C42.509 12.986 42.4754 13.0115 42.4377 13.0294C42.4001 13.0473 42.3591 13.0573 42.3175 13.0588V13.0588Z" fill="#B88F34"/>
<path d="M57.9786 13.0588C57.8978 13.0588 57.8203 13.0267 57.7632 12.9695C57.706 12.9124 57.6739 12.8349 57.6739 12.7541V9.09777C57.6723 8.91241 57.598 8.73508 57.4669 8.604C57.3358 8.47292 57.1585 8.39857 56.9731 8.39698H51.4277C51.2424 8.39857 51.065 8.47292 50.934 8.604C50.8029 8.73508 50.7285 8.91241 50.7269 9.09777V12.7541C50.7269 12.8349 50.6948 12.9124 50.6377 12.9695C50.5806 13.0267 50.5031 13.0588 50.4222 13.0588C50.3414 13.0588 50.2639 13.0267 50.2068 12.9695C50.1497 12.9124 50.1176 12.8349 50.1176 12.7541V9.09777C50.1192 8.75079 50.2577 8.41847 50.5031 8.17311C50.7484 7.92775 51.0807 7.7892 51.4277 7.7876H56.9731C57.3201 7.7892 57.6524 7.92775 57.8978 8.17311C58.1431 8.41847 58.2817 8.75079 58.2833 9.09777V12.7541C58.2833 12.8349 58.2512 12.9124 58.1941 12.9695C58.1369 13.0267 58.0594 13.0588 57.9786 13.0588Z" fill="#B88F34"/>
<path d="M59.4899 13.0892C59.4091 13.0892 59.3316 13.0571 59.2745 13C59.2173 12.9429 59.1852 12.8654 59.1852 12.7846V7.62307C59.186 7.47771 59.1581 7.33363 59.103 7.1991C59.048 7.06458 58.9668 6.94226 58.8643 6.8392C58.7618 6.73613 58.64 6.65434 58.5058 6.59853C58.3715 6.54271 58.2276 6.51398 58.0823 6.51399H50.3187C50.0267 6.5172 49.7477 6.63546 49.5423 6.84311C49.337 7.05075 49.2218 7.33102 49.2218 7.62307V12.7846C49.2218 12.8654 49.1897 12.9429 49.1326 13C49.0754 13.0571 48.9979 13.0892 48.9171 13.0892C48.8363 13.0892 48.7588 13.0571 48.7017 13C48.6445 12.9429 48.6124 12.8654 48.6124 12.7846V7.62307C48.6124 7.1673 48.7935 6.7302 49.1158 6.40793C49.438 6.08566 49.8751 5.9046 50.3309 5.9046H58.0944C58.3198 5.9046 58.543 5.94909 58.7512 6.03553C58.9593 6.12196 59.1483 6.24864 59.3074 6.4083C59.4665 6.56795 59.5925 6.75744 59.6782 6.9659C59.7639 7.17436 59.8076 7.39768 59.8068 7.62307V12.7846C59.8068 12.8256 59.7986 12.8663 59.7825 12.904C59.7664 12.9418 59.7429 12.976 59.7133 13.0044C59.6837 13.0329 59.6487 13.0551 59.6103 13.0696C59.5719 13.0842 59.531 13.0909 59.4899 13.0892Z" fill="#B88F34"/>
</svg>
