<svg width="76" height="32" viewBox="0 0 76 32" fill="none" xmlns="http://www.w3.org/2000/svg">
<path d="M47.0823 30.1877C45.2337 30.1782 43.4016 29.8392 41.672 29.1866C34.4957 26.5489 32.8704 20.7618 32.8085 20.5199L32.7354 20.25L32.966 20.0925C35.2112 18.7451 37.8091 18.1025 40.4235 18.2478H40.6822L40.7834 18.4559C41.179 19.2371 41.6301 19.9889 42.1332 20.7055C46.9417 27.5275 53.5781 27.595 53.7468 27.595H55.0066L53.9549 28.2924C51.8951 29.5745 49.5081 30.2327 47.0823 30.1877V30.1877ZM33.6521 20.5874C34.0683 21.7516 36.0367 26.279 41.942 28.4611C43.6104 29.1203 45.3928 29.4423 47.1864 29.4085C48.98 29.3747 50.7491 28.9858 52.3914 28.2642C50.0912 27.9212 45.2714 26.577 41.4639 21.1555C40.9899 20.4757 40.5579 19.7677 40.1704 19.0352C37.899 18.9711 35.6508 19.5065 33.6521 20.5874V20.5874Z" fill="#B88F34"/>
<path d="M60.3663 30.1877C57.9421 30.2345 55.5564 29.5761 53.4994 28.2923L52.4927 27.5668H53.7468C53.9156 27.5668 60.4957 27.4994 65.3324 20.6774C65.8329 19.9601 66.282 19.2084 66.6765 18.4278L66.7834 18.2253H67.014C69.6383 18.0939 72.2418 18.7521 74.4883 20.115L74.7189 20.2725L74.6458 20.5424C74.5783 20.7843 72.9586 26.5714 65.7767 29.2091C64.0457 29.854 62.2136 30.1854 60.3663 30.1877V30.1877ZM55.0629 28.253C56.7048 28.9725 58.4728 29.3604 60.2651 29.3942C62.0575 29.4279 63.8388 29.107 65.5067 28.4498C71.4288 26.2733 73.3804 21.7516 73.7966 20.5762C71.7931 19.4859 69.5356 18.9482 67.2558 19.0183C66.8684 19.7502 66.4344 20.4566 65.9566 21.1329C62.1492 26.5433 57.3575 27.9099 55.0629 28.253Z" fill="#B88F34"/>
<path d="M53.7469 28.3655H52.5208L53.5275 27.6625C53.5838 27.6288 59.0278 23.7257 59.0278 15.3402C59.0296 14.0299 58.8901 12.7232 58.6116 11.4428L58.561 11.2234L58.7298 11.066C63.3133 6.88729 68.15 6.83105 68.3581 6.83105H68.6337L68.7293 7.08976C68.808 7.3091 70.6077 12.5563 67.3908 18.8384C66.9746 19.6432 66.5049 20.4192 65.9848 21.1611V21.1611C60.9737 28.2137 54.3093 28.3655 53.7469 28.3655ZM59.3709 11.4934C59.6283 12.7576 59.7583 14.0444 59.759 15.3346C59.759 21.9935 56.5814 25.8853 54.911 27.4713C57.0707 27.1338 61.6599 25.7841 65.2874 20.7224C65.7879 20.0052 66.2371 19.2534 66.6315 18.4728C68.3951 15.1446 68.8869 11.2883 68.015 7.62404C64.8075 7.9673 61.7912 9.31795 59.399 11.4821L59.3709 11.4934Z" fill="#B88F34"/>
<path d="M53.7018 28.3654C53.1394 28.3654 46.4412 28.2136 41.4639 21.1441C40.9409 20.4022 40.4711 19.6241 40.0579 18.8158C36.8409 12.5394 38.6406 7.29213 38.7194 7.07279L38.815 6.81409H39.0905C39.293 6.81409 44.1184 6.87033 48.6908 11.0265L48.8595 11.184L48.8145 11.4033C48.528 12.6959 48.3847 14.0162 48.3871 15.3401C48.3871 23.7762 53.893 27.6287 53.9493 27.6624L54.9672 28.3654H53.7299H53.7018ZM39.3774 7.6127C38.5028 11.2762 38.9926 15.1329 40.7553 18.4615C41.1509 19.2426 41.602 19.9944 42.105 20.7111C45.7044 25.8177 50.3274 27.1394 52.4983 27.4599C50.811 25.8683 47.6053 21.9765 47.6053 15.3233C47.6029 14.0255 47.733 12.7309 47.9934 11.4595C45.6028 9.29484 42.585 7.94748 39.3774 7.6127Z" fill="#B88F34"/>
<path d="M53.7244 28.4499L53.505 28.298C53.2632 28.1293 47.6054 24.1644 47.6054 15.3234C47.6024 13.9486 47.7495 12.5776 48.0441 11.2347C49.3882 5.19446 53.3025 2.36557 53.4656 2.23622L53.6962 2.07312L53.9212 2.23622C54.0843 2.35432 58.0099 5.18884 59.3484 11.2347C59.6429 12.57 59.79 13.9335 59.7871 15.3009C59.7871 24.1419 54.163 28.1068 53.9493 28.2699L53.7244 28.4499ZM53.7244 3.06858C51.2359 5.24357 49.5224 8.16904 48.8427 11.4034C48.5562 12.696 48.4128 14.0163 48.4153 15.3402C48.4153 22.7696 52.712 26.6614 53.7525 27.4938C54.7817 26.6614 59.0278 22.7696 59.0278 15.3402C59.0296 14.0299 58.8901 12.7232 58.6116 11.4428C57.9308 8.18983 56.2045 5.24889 53.6962 3.06858H53.7244Z" fill="#B88F34"/>
<path d="M6.27428 3.46219C6.63259 3.05241 7.07198 2.72139 7.5647 2.49003C8.05742 2.25867 8.59276 2.13201 9.13692 2.11804C10.7679 2.11804 11.9939 3.10225 11.8871 4.93006C11.7486 5.79508 11.3436 6.59529 10.7285 7.21905L8.06273 10.4248H11.6734V11.4202H6.11118L6.06619 11.2965L9.94116 6.61728C10.3771 6.14273 10.6781 5.56018 10.8129 4.93006C10.88 4.68498 10.8854 4.42711 10.8287 4.17942C10.772 3.93173 10.655 3.7019 10.488 3.51039C10.3209 3.31889 10.1092 3.17166 9.87149 3.0818C9.63381 2.99195 9.3776 2.96227 9.12567 2.99539C8.26238 3.05244 7.45535 3.44385 6.87605 4.08646L6.27428 3.46219Z" fill="#B88F34"/>
<path d="M17.9386 2.7255C16.2514 3.69284 15.4021 4.76703 14.9691 6.00994C15.4631 5.65893 16.0505 5.46312 16.6563 5.44754C19.2602 5.44754 19.8058 7.41033 19.8058 8.54076C19.8068 8.94518 19.7244 9.34546 19.5637 9.7166C19.4031 10.0877 19.1676 10.4218 18.872 10.6978C18.5765 10.9738 18.2271 11.186 17.8459 11.3209C17.4647 11.4559 17.0597 11.5107 16.6563 11.4821C16.2431 11.4977 15.8311 11.4283 15.4459 11.2781C15.0607 11.128 14.7104 10.9004 14.4167 10.6093C14.123 10.3183 13.8922 9.97003 13.7386 9.58615C13.585 9.20228 13.5119 8.79096 13.5237 8.37766C13.4813 7.04553 13.8321 5.7304 14.5321 4.59626C15.2322 3.46212 16.2507 2.55917 17.4605 2L17.9386 2.7255ZM18.7484 8.46202C18.7611 8.18782 18.7167 7.91397 18.6179 7.65786C18.5191 7.40176 18.3681 7.169 18.1745 6.97437C17.981 6.77974 17.749 6.6275 17.4935 6.52731C17.2379 6.42711 16.9643 6.38116 16.69 6.39238C16.4175 6.37034 16.1433 6.40685 15.886 6.49945C15.6287 6.59206 15.3942 6.73862 15.1982 6.9293C15.0022 7.11998 14.8492 7.35038 14.7496 7.60503C14.6499 7.85969 14.6059 8.13271 14.6204 8.40578C14.609 8.68385 14.654 8.96135 14.7526 9.22158C14.8512 9.48182 15.0015 9.71943 15.1943 9.92011C15.3871 10.1208 15.6185 10.2804 15.8746 10.3894C16.1306 10.4984 16.4061 10.5544 16.6844 10.5542C16.9602 10.563 17.2349 10.5147 17.4912 10.4123C17.7475 10.3099 17.9798 10.1556 18.1736 9.95916C18.3674 9.7627 18.5186 9.52829 18.6175 9.27066C18.7164 9.01302 18.761 8.73771 18.7484 8.46202V8.46202Z" fill="#B88F34"/>
<path d="M25.8853 2.7255C24.1981 3.69284 23.3488 4.76703 22.9102 6.00994C23.4146 5.6544 24.0141 5.45848 24.6311 5.44754C27.2351 5.44754 27.775 7.41033 27.775 8.54076C27.7768 8.94491 27.6951 9.34509 27.535 9.71621C27.375 10.0873 27.1401 10.4214 26.845 10.6975C26.5498 10.9737 26.2009 11.1859 25.8199 11.3209C25.439 11.4559 25.0343 11.5108 24.6311 11.4821C24.2177 11.4977 23.8055 11.4282 23.42 11.2782C23.0344 11.1281 22.6838 10.9005 22.3896 10.6096C22.0955 10.3186 21.8642 9.97045 21.71 9.58656C21.5557 9.20267 21.4819 8.79123 21.4929 8.37766C21.4513 7.04567 21.8023 5.73084 22.5023 4.59685C23.2023 3.46285 24.2204 2.55977 25.4297 2L25.8853 2.7255ZM26.6895 8.46202C26.7014 8.18803 26.6563 7.91456 26.5572 7.65884C26.4581 7.40313 26.3071 7.17072 26.1137 6.97627C25.9203 6.78182 25.6887 6.62954 25.4336 6.52905C25.1784 6.42856 24.9052 6.38202 24.6311 6.39238C24.3583 6.37043 24.084 6.40695 23.8264 6.49951C23.5688 6.59207 23.334 6.73854 23.1375 6.92912C22.9411 7.1197 22.7876 7.35001 22.6873 7.60466C22.587 7.85931 22.5422 8.13243 22.5559 8.40578C22.5452 8.6846 22.5911 8.96268 22.6907 9.22332C22.7903 9.48396 22.9416 9.72176 23.1354 9.92245C23.3293 10.1231 23.5617 10.2825 23.8187 10.3911C24.0758 10.4997 24.3521 10.5551 24.6311 10.5542C24.9065 10.5622 25.1806 10.5133 25.4362 10.4106C25.6918 10.3078 25.9234 10.1534 26.1166 9.95704C26.3098 9.76067 26.4604 9.52653 26.559 9.26929C26.6576 9.01204 26.702 8.73722 26.6895 8.46202V8.46202Z" fill="#B88F34"/>
<path d="M4.68829 16.4707C5.73999 16.8025 7.02789 17.2749 7.02789 18.7203C7.02789 19.8451 5.96495 20.6325 4.54769 20.6325C3.65397 20.6593 2.77084 20.4332 2 19.9801C2.12935 19.7045 2.26433 19.4683 2.38806 19.1927C3.02752 19.5419 3.74063 19.7347 4.46895 19.7551C5.20008 19.7551 5.8356 19.3671 5.8356 18.7597C5.8356 17.9386 5.04823 17.708 4.1765 17.4155C3.18105 17.0837 2.07311 16.735 2.07311 15.419C2.07311 14.2042 2.97296 13.5125 4.26086 13.5125C5.09483 13.5206 5.91673 13.7126 6.66796 14.0749C6.51611 14.3898 6.43175 14.6373 6.2799 14.9185C5.72198 14.6714 5.12731 14.5175 4.51957 14.4629C3.81657 14.4629 3.1923 14.6541 3.15293 15.3628C3.11356 16.0714 3.85031 16.2232 4.68829 16.4707Z" fill="#B88F34"/>
<path d="M8.68137 17.0106C8.68137 15.5315 9.50248 13.4506 12.0558 13.4506C12.4803 13.4295 12.9039 13.5063 13.2939 13.675C13.684 13.8437 14.0301 14.0998 14.3054 14.4235C14.3616 14.2154 14.5022 13.8274 14.5979 13.563H15.2053V23.2814H14.0804V20.115C13.486 20.43 12.8241 20.596 12.1514 20.5987C9.4856 20.5818 8.68137 18.4616 8.68137 17.0106ZM9.80617 17.0106C9.80617 17.7979 10.2055 19.6258 12.2301 19.6258C12.8724 19.5909 13.4937 19.3851 14.0298 19.0296V15.419C13.7999 15.1349 13.5106 14.9046 13.1822 14.7443C12.8538 14.584 12.4943 14.4975 12.1289 14.491C10.1267 14.491 9.83429 16.3301 9.83429 17.0106H9.80617Z" fill="#B88F34"/>
<path d="M18.5684 20.4974H17.4436V13.5742H18.0173L18.2929 14.4347C18.892 13.8373 19.6967 13.4912 20.5425 13.4674C20.9742 13.4264 21.4091 13.4994 21.8039 13.679C22.1986 13.8586 22.5393 14.1386 22.7921 14.491C23.0856 14.1697 23.4425 13.9128 23.8404 13.7366C24.2383 13.5604 24.6684 13.4687 25.1036 13.4674C27.6344 13.4674 27.7581 15.3739 27.7581 16.9262V20.4974H26.6221V16.5944C26.6221 15.8632 26.6221 14.5303 25.0586 14.4235C24.6712 14.402 24.2852 14.4858 23.9416 14.666C23.598 14.8462 23.3096 15.1161 23.107 15.447C23.1832 15.9362 23.2152 16.4313 23.2027 16.9262V20.4974H22.0778V16.6618C22.0385 15.9701 22.106 14.5584 20.5144 14.446C20.1267 14.4443 19.7451 14.5415 19.4056 14.7285C19.066 14.9155 18.7798 15.186 18.5741 15.5145L18.5684 20.4974Z" fill="#B88F34"/>
</svg>
