<svg width="56" height="32" viewBox="0 0 56 32" fill="none" xmlns="http://www.w3.org/2000/svg">
<path fill-rule="evenodd" clip-rule="evenodd" d="M55.0657 27.3322C54.9827 27.3306 54.9034 27.2969 54.8447 27.2381C54.7859 27.1794 54.7522 27.1002 54.7506 27.0171V0.63021H1.63021V27.0171C1.63021 27.1007 1.59701 27.1808 1.53792 27.2399C1.47882 27.299 1.39868 27.3322 1.31511 27.3322C1.23153 27.3322 1.15139 27.299 1.09229 27.2399C1.0332 27.1808 1 27.1007 1 27.0171V0H55.3745V27.0171C55.3745 27.0996 55.3422 27.1788 55.2845 27.2377C55.2267 27.2966 55.1482 27.3306 55.0657 27.3322ZM48.1712 27.3322C48.0877 27.3322 48.0075 27.299 47.9484 27.2399C47.8893 27.1808 47.8561 27.1007 47.8561 27.0171V7.90281H8.52472V27.0171C8.52472 27.1007 8.49152 27.1808 8.43243 27.2399C8.37333 27.299 8.29319 27.3322 8.20961 27.3322C8.12655 27.3306 8.04734 27.2969 7.98859 27.2381C7.92984 27.1794 7.89612 27.1001 7.89451 27.0171V7.2726H48.4863V27.0171C48.4863 27.1007 48.4531 27.1808 48.394 27.2399C48.3349 27.299 48.2548 27.3322 48.1712 27.3322ZM1 31H55.3745V28.3279H1V31ZM54.7443 30.3698H1.62391L1.63021 28.9581H54.7443V30.3698ZM24.2674 27.3322H22.799C22.6146 27.3306 22.4382 27.2561 22.3084 27.1251C22.1786 26.9941 22.1058 26.8171 22.1058 26.6327V25.5053C22.0705 25.4759 22.0369 25.4444 22.0053 25.4108C21.9007 25.2997 21.8194 25.1688 21.7663 25.0258C21.7132 24.8828 21.6894 24.7306 21.6961 24.5782V22.6875C21.6961 22.4867 21.6961 21.8208 22.8067 20.861L22.4461 20.5322H21.3432V19.902H22.7297L23.2085 20.3419C23.3726 20.0109 23.6258 19.4853 23.9208 18.8433C24.4627 17.6585 25.1812 17.6459 25.3829 17.6648H27.9982V18.295H25.2946C25.1623 18.295 24.8031 18.4273 24.4879 19.1143C24.1359 19.8827 23.8424 20.4815 23.691 20.7852L24.0468 21.112C24.1066 21.182 24.1811 21.238 24.265 21.2761C24.3488 21.3142 24.44 21.3335 24.5321 21.3326H27.9982H28.0171H31.4833C31.5764 21.3344 31.6688 21.3156 31.7538 21.2775C31.8388 21.2393 31.9143 21.1828 31.9749 21.112L32.3226 20.7986C32.1743 20.4995 31.8737 19.8866 31.5085 19.1079C31.1934 18.421 30.8405 18.2698 30.6892 18.2887H28.0045V17.6585H30.6262C30.8216 17.6585 31.5463 17.6585 32.0883 18.837C32.3901 19.4984 32.6482 20.0316 32.8097 20.3595L33.3172 19.902H34.7037V20.5322H33.5315L33.1879 20.8474C34.3102 21.8111 34.3366 22.4799 34.3129 22.6812V24.5719C34.3197 24.7238 34.296 24.8755 34.2433 25.0181C34.1906 25.1607 34.1099 25.2913 34.006 25.4023C33.9737 25.4367 33.9394 25.469 33.9033 25.4991V26.6327C33.9033 26.8171 33.8305 26.9941 33.7006 27.1251C33.5708 27.2561 33.3945 27.3306 33.2101 27.3322H31.7417C31.5573 27.3306 31.3809 27.2561 31.2511 27.1251C31.1213 26.9941 31.0484 26.8171 31.0485 26.6327V25.7656L28.0045 25.7693V25.7693H24.9606V26.6327C24.9606 26.8171 24.8878 26.9941 24.758 27.1251C24.6281 27.2561 24.4518 27.3306 24.2674 27.3322ZM27.9982 25.1454H22.8179C22.7474 25.145 22.6778 25.1297 22.6136 25.1005C22.5494 25.0712 22.4922 25.0287 22.4458 24.9756C22.3993 24.9226 22.3646 24.8603 22.344 24.7929C22.3234 24.7255 22.3174 24.6544 22.3263 24.5845V22.6119L22.3263 22.6114C22.3256 22.5917 22.3074 22.1027 23.2746 21.2877L23.5174 21.509C23.6366 21.6521 23.786 21.7671 23.9549 21.8455C24.1238 21.924 24.308 21.964 24.4942 21.9628H27.9982H28.0045H31.4833C31.6706 21.965 31.856 21.9254 32.0261 21.8469C32.1961 21.7684 32.3466 21.653 32.4664 21.509L32.7199 21.2766C33.6827 22.0948 33.6827 22.5867 33.6827 22.5867V24.5782C33.6906 24.6479 33.6839 24.7186 33.6629 24.7856C33.6419 24.8526 33.6072 24.9145 33.5609 24.9673C33.5147 25.0201 33.4579 25.0626 33.3942 25.0922C33.3305 25.1218 33.2614 25.1377 33.1912 25.1391H27.9982V25.1454ZM31.6787 25.7648V26.6327C31.6778 26.6415 31.6788 26.6504 31.6815 26.6588C31.6843 26.6671 31.6888 26.6749 31.6947 26.6814C31.7007 26.6879 31.7079 26.6931 31.716 26.6967C31.7241 26.7002 31.7329 26.7021 31.7417 26.702H33.2101C33.2189 26.7021 33.2277 26.7002 33.2357 26.6967C33.2438 26.6931 33.2511 26.6879 33.257 26.6814C33.263 26.6749 33.2675 26.6671 33.2702 26.6588C33.273 26.6504 33.274 26.6415 33.2731 26.6327V25.7589C33.248 25.7611 33.2227 25.7624 33.1975 25.763L31.6787 25.7648ZM22.8179 25.7693C22.7905 25.7688 22.7632 25.7674 22.736 25.765V26.6327C22.7351 26.6415 22.7361 26.6504 22.7388 26.6588C22.7416 26.6671 22.7461 26.6749 22.752 26.6814C22.758 26.6879 22.7652 26.6931 22.7733 26.6967C22.7814 26.7002 22.7902 26.7021 22.799 26.702H24.2674C24.2762 26.7021 24.285 26.7002 24.293 26.6967C24.3011 26.6931 24.3084 26.6879 24.3143 26.6814C24.3203 26.6749 24.3248 26.6671 24.3275 26.6588C24.3303 26.6504 24.3313 26.6415 24.3304 26.6327V25.7693H22.8179ZM23.9397 23.7274C23.6251 23.6982 23.3254 23.5794 23.0763 23.3851C22.8272 23.1907 22.6391 22.9289 22.5343 22.6308L23.0952 22.3535C23.4645 23.0985 23.9272 23.0972 23.9457 23.0972H23.946H25.0615L24.6896 22.7128L25.1434 22.2716L26.5488 23.7274H23.9397ZM25.6664 24.0551H27.9982V24.6853H25.6664V24.0551ZM29.4603 23.7274H32.0568C32.377 23.7041 32.6834 23.5879 32.9386 23.3932C33.1938 23.1984 33.3867 22.9335 33.4937 22.6308L32.9265 22.3535C32.5609 23.0972 32.1009 23.0972 32.0568 23.0972H30.9476L31.3194 22.7128L30.8657 22.2716L29.4603 23.7274ZM30.3363 24.0551H28.0045V24.6853H30.3363V24.0551ZM36.8212 27.3322H35.6238C35.4566 27.3322 35.2964 27.2658 35.1782 27.1476C35.06 27.0294 34.9936 26.8691 34.9936 26.702V25.8076C34.9743 25.7902 34.9557 25.7721 34.9378 25.7531C34.8479 25.6579 34.778 25.5455 34.7323 25.4227C34.6867 25.2999 34.6662 25.1691 34.6722 25.0382V23.4816C34.6722 23.3007 34.6722 22.7526 35.5521 21.9873L35.3402 21.7926H34.4264V21.1624H35.5797L35.9336 21.4899C36.0651 21.2195 36.2581 20.8151 36.4809 20.3242C36.9409 19.3222 37.5522 19.3159 37.7413 19.3348H39.8651L39.8651 19.3664H41.9889C42.1716 19.3664 42.7829 19.3664 43.2493 20.3558C43.4166 20.7177 43.5692 21.0239 43.6908 21.2679L43.6908 21.268L43.6909 21.2681L43.6909 21.2682L43.691 21.2683L43.6911 21.2684L43.6911 21.2685C43.7299 21.3464 43.7656 21.418 43.7976 21.483L44.1442 21.1624H45.2912V21.7926H44.39L44.1619 22.0021C45.0502 22.7762 45.0819 23.331 45.0643 23.5132V25.0383C45.0711 25.1697 45.0513 25.3011 45.006 25.4246C44.9608 25.5482 44.8911 25.6613 44.801 25.7573C44.7785 25.7812 44.7549 25.8039 44.7303 25.8254V26.702C44.7303 26.8691 44.6639 27.0294 44.5457 27.1476C44.4275 27.2658 44.2672 27.3322 44.1001 27.3322H42.909C42.7418 27.3322 42.5815 27.2658 42.4633 27.1476C42.3451 27.0294 42.2787 26.8691 42.2787 26.702V26.0628L39.8588 26.0592V26.0592H37.4451V26.702C37.4451 26.868 37.3796 27.0274 37.2627 27.1454C37.1459 27.2634 36.9872 27.3305 36.8212 27.3322ZM39.8588 25.4353H35.6427C35.5926 25.4358 35.543 25.4255 35.4973 25.405C35.4516 25.3845 35.4108 25.3543 35.3779 25.3166C35.3449 25.2789 35.3206 25.2344 35.3064 25.1864C35.2923 25.1383 35.2888 25.0878 35.2961 25.0382V23.4249V23.4246C35.2959 23.4123 35.292 23.0421 36.0233 22.4201L36.191 22.5741C36.2938 22.6959 36.4222 22.7934 36.5671 22.8599C36.712 22.9263 36.8698 22.96 37.0291 22.9585H39.8588H39.8651H42.701C42.8603 22.9592 43.0177 22.9251 43.1625 22.8587C43.3072 22.7923 43.4358 22.6952 43.5392 22.5741L43.7053 22.4215C44.4278 23.033 44.4278 23.3997 44.4278 23.3997V25.032C44.435 25.081 44.4316 25.131 44.4179 25.1786C44.4041 25.2262 44.3803 25.2703 44.348 25.308C44.3158 25.3456 44.2758 25.3759 44.2309 25.3967C44.1859 25.4176 44.137 25.4286 44.0875 25.429H39.8588L39.8588 25.4353ZM43.3005 21.9428C43.1747 21.6861 42.9407 21.2025 42.6569 20.589C42.4174 20.0659 42.1527 19.9588 42.0267 19.9588H39.8651L39.8651 19.965H37.6468C37.5396 19.965 37.2938 20.0722 37.0544 20.5952C36.7753 21.2025 36.5444 21.6789 36.4172 21.9374L36.6762 22.1771C36.7214 22.2253 36.7761 22.2636 36.8369 22.2896C36.8976 22.3156 36.9631 22.3288 37.0291 22.3283H39.8588H39.8651H42.701C42.7677 22.3288 42.8337 22.315 42.8946 22.2878C42.9554 22.2606 43.0098 22.2207 43.0539 22.1708L43.3005 21.9428ZM42.909 26.0637V26.702H44.1001L44.1001 26.0655L42.909 26.0637ZM35.6364 26.0592L35.6238 26.0589V26.702H36.8149V26.0592H35.6364ZM36.5501 24.408C36.283 24.384 36.0282 24.284 35.816 24.1199C35.6039 23.9557 35.4431 23.7342 35.3528 23.4816L35.9199 23.2043C36.1757 23.7215 36.4827 23.7672 36.5405 23.7758C36.5468 23.7767 36.5501 23.7772 36.5501 23.7778H37.3253L37.0984 23.551L37.5522 23.1098L38.8126 24.3702H36.5438L36.5501 24.408ZM37.9618 24.5467H39.8651V25.1769H37.9618V24.5467ZM40.9112 24.408H43.1611C43.4233 24.3845 43.6737 24.2875 43.8833 24.1281C44.0928 23.9686 44.2532 23.7533 44.3459 23.5068L43.7787 23.2295C43.5266 23.803 43.1926 23.803 43.1485 23.803H42.4174L42.6254 23.5887L42.1716 23.1476L40.9112 24.408ZM41.7683 24.5467H39.8651V25.1769H41.7683V24.5467ZM12.848 27.3322H11.6506C11.4834 27.3322 11.3231 27.2658 11.2049 27.1476C11.0868 27.0294 11.0204 26.8691 11.0204 26.702V25.8076C11.0011 25.7902 10.9825 25.7721 10.9646 25.7531C10.8746 25.6579 10.8048 25.5455 10.7591 25.4227C10.7135 25.2999 10.693 25.1691 10.6989 25.0382V23.4816C10.6989 23.3007 10.6989 22.7526 11.5789 21.9873L11.367 21.7926H10.4531V21.1624H11.6064L11.96 21.4877C12.0916 21.2175 12.2847 20.8155 12.5076 20.3242C12.974 19.3222 13.579 19.3159 13.7681 19.3348H15.8919V19.965H13.6735C13.5853 19.965 13.3206 20.0722 13.0811 20.5952C12.8032 21.2002 12.573 21.6752 12.4455 21.9344L12.7093 22.1771C12.7531 22.2254 12.8066 22.2639 12.8663 22.29C12.9261 22.316 12.9907 22.3291 13.0559 22.3283H15.8856H15.8919H18.7278C18.7945 22.3288 18.8605 22.315 18.9214 22.2878C18.9823 22.2606 19.0366 22.2207 19.0808 22.1708L19.3447 21.9267C19.2172 21.6662 18.9869 21.1899 18.7089 20.589C18.4695 20.0659 18.2048 19.9588 18.0787 19.9588H15.8919V19.3664H18.0157C18.1985 19.3664 18.8098 19.3664 19.2761 20.3558C19.4436 20.718 19.5963 21.0244 19.7179 21.2685C19.7568 21.3464 19.7925 21.418 19.8244 21.483L20.171 21.1624H21.3432V21.7926H20.4168L20.1888 22.0021C21.0771 22.7762 21.1088 23.331 21.0911 23.5132V25.0383C21.0979 25.1697 21.0781 25.3011 21.0329 25.4246C20.9876 25.5482 20.9179 25.6613 20.8278 25.7573C20.8054 25.7812 20.7818 25.8039 20.7571 25.8254V26.702C20.7571 26.8691 20.6907 27.0294 20.5725 27.1476C20.4543 27.2658 20.294 27.3322 20.1269 27.3322H18.9358C18.7687 27.3322 18.6084 27.2658 18.4902 27.1476C18.372 27.0294 18.3056 26.8691 18.3056 26.702V26.0628L15.8856 26.0592V26.0592H13.4719V26.702C13.4719 26.868 13.4064 27.0274 13.2895 27.1454C13.1727 27.2634 13.014 27.3305 12.848 27.3322ZM15.8856 25.4391V25.429H20.1143C20.1639 25.4286 20.2128 25.4176 20.2577 25.3967C20.3027 25.3759 20.3426 25.3456 20.3749 25.308C20.4071 25.2703 20.4309 25.2262 20.4447 25.1786C20.4584 25.131 20.4618 25.081 20.4546 25.032V23.3997C20.4546 23.3997 20.4546 23.033 19.7322 22.4215L19.566 22.5741C19.4626 22.6952 19.3341 22.7923 19.1893 22.8587C19.0446 22.9251 18.8871 22.9592 18.7278 22.9585H15.8919H15.8856H13.0559C12.8965 22.96 12.7388 22.9263 12.5939 22.8599C12.449 22.7934 12.3206 22.6959 12.2177 22.5741L12.0501 22.4201C11.3188 23.0421 11.3227 23.4123 11.3228 23.4246L11.3228 23.4249V25.0382C11.3156 25.0873 11.319 25.1373 11.3328 25.1849C11.3465 25.2325 11.3703 25.2766 11.4026 25.3142C11.4349 25.3519 11.4748 25.3821 11.5197 25.403C11.5647 25.4239 11.6136 25.4349 11.6632 25.4353H15.8856L15.8856 25.4391ZM18.9358 26.0637V26.702H20.1269V26.0655L18.9358 26.0637ZM11.6506 26.702V26.0589L11.6632 26.0592H12.8417V26.702H11.6506ZM12.577 24.408C12.3098 24.384 12.0551 24.284 11.8429 24.1199C11.6307 23.9557 11.4699 23.7342 11.3796 23.4816L11.9468 23.2043C12.2025 23.7215 12.5095 23.7672 12.5673 23.7758C12.5717 23.7764 12.5746 23.7769 12.576 23.7773C12.5767 23.7775 12.577 23.7776 12.577 23.7778H13.3521L13.1505 23.551L13.6042 23.1098L14.8647 24.3702H12.5959L12.577 24.408ZM13.9887 24.5467H15.8919H15.8919H17.7951V25.1769H15.8919H15.8919H13.9887V24.5467ZM16.9317 24.408H19.1879C19.4524 24.3868 19.7054 24.2908 19.9174 24.1313C20.1294 23.9717 20.2917 23.7551 20.3853 23.5068L19.8181 23.2295C19.566 23.803 19.1879 23.803 19.1879 23.803H18.4379L18.6459 23.5887L18.1921 23.1476L16.9317 24.408Z" fill="#B88F34"/>
</svg>
