<svg width="16" height="16" viewBox="0 0 16 16" fill="none" xmlns="http://www.w3.org/2000/svg">
<path fill-rule="evenodd" clip-rule="evenodd" d="M2.41608 0H13.5839C14.9183 0 16 1.08172 16 2.41608V13.5823C16 14.9167 14.9183 15.9984 13.5839 15.9984H2.41608C1.08172 15.9984 0 14.9167 0 13.5823V2.41608C0 1.08172 1.08172 0 2.41608 0ZM5.11936 13.4271V6.15638H2.70272V13.4271H5.11936ZM3.91136 5.1631C4.75408 5.1631 5.27864 4.60479 5.27864 3.9071C5.26293 3.19367 4.75411 2.65086 3.92736 2.65086C3.10072 2.65086 2.56016 3.19368 2.56016 3.9071C2.56016 4.60483 3.08458 5.1631 3.8956 5.1631H3.9113H3.91136ZM8.87359 13.4271H6.45695L6.45701 13.427C6.45701 13.427 6.48872 6.8385 6.45701 6.15626H8.87365V7.1857C9.19482 6.69029 9.76967 5.9857 11.0516 5.9857C12.6416 5.9857 13.8338 7.02482 13.8338 9.2581V13.4271H11.4174V9.53738C11.4174 8.55997 11.0675 7.89322 10.193 7.89322C9.52545 7.89322 9.12782 8.34289 8.95311 8.77706C8.8893 8.9324 8.87359 9.14948 8.87359 9.36678V13.4271Z" fill="#F9F7F7"/>
</svg>
