<?xml version="1.0" encoding="utf-8"?>
<!-- Generator: Adobe Illustrator 25.4.1, SVG Export Plug-In . SVG Version: 6.00 Build 0)  -->
<svg version="1.1" id="Layer_1" xmlns="http://www.w3.org/2000/svg" xmlns:xlink="http://www.w3.org/1999/xlink" x="0px" y="0px"
	 viewBox="0 0 200.23 72" style="enable-background:new 0 0 200.23 72;" xml:space="preserve">
<style type="text/css">
	.st0{fill:#FFFFFF;}
</style>
<g>
	<path class="st0" d="M36.9,71.56c-0.1-0.01-0.18-0.01-0.32-0.04c-0.36-0.05-0.66-0.27-1.34-1.02c-0.78-0.89-1.71-2.26-2.49-3.39
		c1.1-0.68,1.71-1.5,1.71-2.57c0-0.97-0.55-1.62-1.16-1.96c-0.56-0.32-1.4-0.43-2.6-0.43c-0.59,0-1.81,0.04-2.05,0.04
		c-0.18,0-1.4-0.04-1.95-0.04c-0.19,0-0.28,0.04-0.28,0.11c0,0.08,0.08,0.13,0.23,0.14c0.11,0.01,0.32,0.01,0.51,0.05
		c0.31,0.06,0.46,0.23,0.48,0.75c0.01,0.41,0.04,0.66,0.04,2.64v2.25c0,1.24-0.01,2.14-0.06,2.67c-0.04,0.44-0.14,0.66-0.4,0.73
		c-0.14,0.03-0.31,0.04-0.43,0.05c-0.14,0-0.23,0.04-0.23,0.13s0.06,0.13,0.25,0.13c0.44,0,1.67-0.04,1.82-0.04
		c0.09,0,1.48,0.04,2.33,0.04c0.18,0,0.27-0.04,0.27-0.11c0-0.08-0.03-0.13-0.23-0.14c-0.26-0.03-0.4-0.03-0.58-0.08
		c-0.38-0.09-0.47-0.37-0.5-0.7c-0.06-0.54-0.06-1.14-0.06-2.15v-0.65c0-0.08,0.04-0.1,0.1-0.1h0.84c0.06,0,0.13,0.04,0.15,0.08
		c0.23,0.35,0.52,0.87,1.11,1.84c0.5,0.81,0.91,1.36,1.31,1.6c0.44,0.29,1.01,0.42,2.32,0.42h1.15c0.13,0,0.25-0.01,0.25-0.13
		C37.12,71.62,37.04,71.56,36.9,71.56z M31.77,66.87c-0.2,0.15-0.46,0.2-0.8,0.2c-0.36,0-0.74-0.04-0.98-0.17
		c-0.08-0.04-0.11-0.09-0.11-0.19v-3.55c0-0.1,0.03-0.11,0.08-0.14c0.09-0.04,0.31-0.05,0.51-0.05c0.66,0,1.81,0.47,1.81,2.29
		C32.27,66.12,32.04,66.67,31.77,66.87z"/>
	<path class="st0" d="M50.17,69.52c-0.08,0-0.13,0.08-0.15,0.23c-0.11,0.59-0.27,0.87-0.63,1.01c-0.36,0.14-0.85,0.15-1.19,0.15
		c-1.41,0-1.59-0.21-1.61-1.1c-0.01-0.49,0-1.24,0-1.67v-0.88c0-0.1,0.01-0.17,0.08-0.17c0.39,0,1.44,0.03,1.8,0.05
		c0.63,0.04,0.8,0.26,0.85,0.63c0.01,0.1,0.03,0.19,0.04,0.3c0.03,0.11,0.05,0.2,0.14,0.2c0.08,0,0.11-0.08,0.11-0.24
		c0-0.14,0-0.77,0.01-1.06c0.04-0.5,0.1-0.96,0.1-1.09c0-0.08,0-0.15-0.08-0.15c-0.06,0-0.1,0.05-0.18,0.17
		c-0.14,0.23-0.31,0.27-0.93,0.3c-0.46,0.01-1.49,0.03-1.85,0.01c-0.09,0-0.1-0.06-0.1-0.15v-2.81c0-0.09,0.03-0.13,0.1-0.13
		c0.38,0,1.49,0.03,1.91,0.06c0.61,0.05,0.78,0.22,0.84,0.51c0.05,0.18,0.06,0.31,0.06,0.45c0.01,0.11,0.06,0.18,0.13,0.18
		c0.08,0,0.13-0.08,0.13-0.18c0.04-0.66,0.06-1.11,0.1-1.37c0.04-0.37,0.06-0.5,0.06-0.56c0-0.06-0.01-0.11-0.08-0.11
		c-0.05,0-0.11,0.03-0.2,0.05c-0.13,0.03-0.43,0.05-0.69,0.05c-0.2,0-3.33,0.01-3.6,0.01c-0.56,0-1.17-0.04-1.9-0.04
		c-0.21,0-0.28,0.04-0.28,0.11c0,0.08,0.06,0.13,0.23,0.14c0.13,0.01,0.31,0.01,0.42,0.04c0.32,0.08,0.43,0.29,0.46,0.66
		c0.03,0.41,0.04,0.66,0.04,2.75v2.25c0,0.79-0.01,1.55-0.04,2.06c-0.03,0.81-0.08,1.29-0.43,1.34c-0.1,0.03-0.23,0.04-0.38,0.05
		c-0.19,0-0.25,0.06-0.25,0.13c0,0.09,0.08,0.13,0.31,0.13c0.7,0,1.24-0.04,1.84-0.04c1.34,0,2.3,0.08,4.05,0.08
		c0.47,0,0.56-0.01,0.65-0.34c0.06-0.24,0.2-1.21,0.2-1.71C50.28,69.65,50.27,69.52,50.17,69.52z"/>
	<path class="st0" d="M61.77,65.86l-0.65-0.43c-0.87-0.59-1.02-1.09-1.02-1.52c0-0.59,0.38-1.18,1.43-1.18
		c0.92,0,1.5,0.43,1.75,0.84c0.18,0.29,0.22,0.61,0.23,0.74c0.03,0.21,0.08,0.24,0.14,0.24c0.1,0,0.14-0.09,0.14-0.32
		c0-1.14,0.03-1.39,0.05-1.8c0-0.1-0.04-0.14-0.17-0.18c-0.2-0.06-0.42-0.11-0.62-0.15c-0.54-0.1-0.92-0.13-1.47-0.13
		c-2.04,0-3.25,1.19-3.25,2.66c0,1.12,0.43,2.02,1.99,3.12l0.79,0.55c1.08,0.74,1.19,1.19,1.19,1.73c0,0.55-0.37,1.18-1.58,1.18
		c-0.99,0-1.95-0.6-2.17-1.65c-0.04-0.15-0.05-0.27-0.06-0.4c-0.01-0.1-0.03-0.22-0.12-0.22c-0.08,0-0.13,0.08-0.15,0.31
		c-0.04,0.36-0.08,0.84-0.08,1.88c0,0.25,0.06,0.42,0.28,0.51c0.5,0.23,1.17,0.36,2.13,0.36c0.66,0,1.48-0.1,2.22-0.55
		c0.96-0.56,1.35-1.43,1.35-2.31C64.12,67.85,63.56,67.05,61.77,65.86z"/>
	<path class="st0" d="M76.25,71.56c-0.17-0.01-0.39-0.03-0.56-0.06c-0.38-0.09-0.46-0.32-0.49-0.65c-0.05-0.54-0.06-1.73-0.06-2.74
		v-2.25c0-1.98,0-2.31,0.04-2.72c0.03-0.46,0.15-0.63,0.48-0.69c0.17-0.03,0.24-0.03,0.37-0.04c0.13,0,0.24-0.03,0.24-0.13
		c0-0.08-0.06-0.13-0.28-0.13c-0.46,0-1.96,0.04-2.08,0.04c-0.1,0-1.35-0.04-1.86-0.04c-0.22,0-0.28,0.04-0.28,0.11
		c0,0.09,0.09,0.14,0.24,0.14c0.17,0.01,0.29,0.03,0.38,0.05c0.28,0.05,0.42,0.28,0.45,0.64c0.04,0.41,0.04,0.78,0.04,2.76v2.25
		c0,1.25-0.03,2.17-0.08,2.71c-0.04,0.37-0.13,0.65-0.39,0.69c-0.14,0.03-0.27,0.04-0.39,0.05c-0.15,0-0.26,0.04-0.26,0.13
		c0,0.1,0.1,0.13,0.31,0.13c0.43,0,1.77-0.04,1.84-0.04c0.11,0,1.48,0.04,2.35,0.04c0.2,0,0.27-0.06,0.27-0.13
		C76.51,71.62,76.46,71.56,76.25,71.56z"/>
	<path class="st0" d="M88.59,62.17c-1.07,0.01-1.64,0.03-2.07,0.03c-0.56,0-1.73-0.04-2.05-0.04c-0.22,0-0.29,0.04-0.29,0.11
		c0,0.06,0.05,0.13,0.24,0.14c0.24,0.03,0.37,0.03,0.47,0.04c0.49,0.05,0.55,0.4,0.58,0.77c0.03,0.41,0.03,0.77,0.03,2.64v2.25
		c0,1.1-0.03,2.01-0.06,2.62c-0.04,0.5-0.17,0.74-0.42,0.78c-0.14,0.03-0.23,0.04-0.39,0.05c-0.14,0-0.24,0.04-0.24,0.13
		c0,0.06,0.04,0.13,0.25,0.13c0.36,0,0.52-0.01,0.88-0.03c0.36-0.01,0.66-0.01,0.97-0.01c0.24,0,0.77,0.04,1.26,0.09
		c0.42,0.04,0.85,0.05,1.36,0.05c2.56,0,3.74-0.88,4.36-1.52c0.73-0.69,1.4-1.96,1.4-3.5c0-1.52-0.57-2.59-1.22-3.25
		C92.48,62.47,90.77,62.18,88.59,62.17z M91.63,70.26c-0.67,0.7-1.43,0.9-2.32,0.9c-0.56,0-1.08-0.18-1.31-0.46
		c-0.14-0.14-0.19-0.4-0.22-0.92c-0.01-0.24-0.03-1.12-0.03-2.48v-1.64c0-1.04,0.03-1.95,0.01-2.39c0-0.11,0.01-0.18,0.11-0.23
		c0.11-0.06,0.41-0.1,0.69-0.1c0.84,0,2.05,0.24,2.93,1.39c0.53,0.73,0.96,1.76,0.96,2.93C92.46,68.46,92.29,69.6,91.63,70.26z"/>
	<path class="st0" d="M127.9,62.16c-0.53,0-1.17,0.04-1.45,0.04c-0.51,0-1.34-0.04-1.85-0.04c-0.14,0-0.25,0.04-0.25,0.13
		c0,0.06,0.06,0.13,0.23,0.13c0.18,0.01,0.38,0.03,0.56,0.06c0.51,0.09,0.58,0.42,0.6,1.14l0.08,4.79
		c-0.34-0.31-1.22-1.16-2.52-2.36c-2.92-2.68-3.58-3.32-4.12-3.77c-0.33-0.27-0.39-0.31-0.5-0.31c-0.15,0-0.2,0.23-0.22,0.61
		c-0.08,1.65-0.05,4.73-0.11,7.36c-0.04,1.19-0.1,1.51-0.6,1.58c-0.14,0.03-0.31,0.03-0.42,0.04c-0.18,0-0.24,0.05-0.24,0.13
		c0,0.1,0.1,0.13,0.28,0.13c0.5,0,1.44-0.04,1.74-0.04c0.79,0.01,1.2,0.04,1.64,0.04c0.2,0,0.31-0.03,0.31-0.13
		c0-0.08-0.06-0.11-0.25-0.13c-0.26-0.03-0.49-0.03-0.68-0.09c-0.36-0.13-0.41-0.47-0.43-1.39l-0.13-4.36
		c0.93,0.91,2.21,2.11,2.92,2.76c0.77,0.7,1.89,1.71,2.75,2.48c0.83,0.73,1.22,1.04,1.43,1.04c0.17,0,0.26-0.14,0.26-0.79
		c0.05-2.57,0.05-5.13,0.15-7.69c0.04-0.79,0.17-1.01,0.59-1.06c0.09-0.03,0.15-0.03,0.32-0.04c0.15,0,0.22-0.08,0.22-0.14
		C128.18,62.2,128.09,62.16,127.9,62.16z"/>
	<path class="st0" d="M144.68,69.16c-0.1,0-0.14,0.09-0.2,0.36c-0.1,0.38-0.24,0.66-0.42,0.85c-0.5,0.56-1.15,0.65-2.19,0.65
		c-2.14,0-3.57-1.76-3.57-4.4c0-1.37,0.35-2.56,1.12-3.23c0.5-0.44,1.12-0.61,1.87-0.61c1.24,0,2.13,0.33,2.57,0.8
		c0.42,0.46,0.47,0.97,0.49,1.25c0.01,0.18,0.05,0.27,0.15,0.27c0.11,0,0.14-0.11,0.15-0.31c0.03-0.32,0.01-1.07,0.04-1.49
		c0.03-0.44,0.06-0.74,0.06-0.84c0-0.08,0-0.15-0.14-0.17c-0.38-0.01-0.69-0.08-1.26-0.17c-0.5-0.08-1.08-0.15-1.81-0.15
		c-1.85,0-3.12,0.38-4.22,1.32c-1.29,1.09-1.58,2.67-1.58,3.54c0,1.37,0.36,2.69,1.61,3.76c1.34,1.12,2.97,1.41,4.63,1.41
		c0.82,0,1.68-0.09,2.19-0.29c0.22-0.08,0.3-0.18,0.33-0.37c0.13-0.61,0.28-1.73,0.28-1.94C144.79,69.29,144.77,69.16,144.68,69.16z
		"/>
	<path class="st0" d="M159.47,69.52c-0.08,0-0.13,0.08-0.15,0.23c-0.11,0.59-0.27,0.87-0.63,1.01c-0.36,0.14-0.85,0.15-1.19,0.15
		c-1.41,0-1.59-0.21-1.61-1.1c-0.01-0.49,0-1.24,0-1.67v-0.88c0-0.1,0.01-0.17,0.08-0.17c0.39,0,1.44,0.03,1.8,0.05
		c0.63,0.04,0.8,0.26,0.85,0.63c0.01,0.1,0.03,0.19,0.04,0.3c0.03,0.11,0.05,0.2,0.14,0.2c0.08,0,0.11-0.08,0.11-0.24
		c0-0.14,0-0.77,0.01-1.06c0.04-0.5,0.1-0.96,0.1-1.09c0-0.08,0-0.15-0.08-0.15c-0.06,0-0.1,0.05-0.18,0.17
		c-0.14,0.23-0.31,0.27-0.93,0.3c-0.46,0.01-1.49,0.03-1.85,0.01c-0.09,0-0.1-0.06-0.1-0.15v-2.81c0-0.09,0.03-0.13,0.1-0.13
		c0.38,0,1.49,0.03,1.91,0.06c0.61,0.05,0.78,0.22,0.84,0.51c0.05,0.18,0.06,0.31,0.06,0.45c0.01,0.11,0.06,0.18,0.13,0.18
		c0.08,0,0.13-0.08,0.13-0.18c0.04-0.66,0.06-1.11,0.1-1.37c0.04-0.37,0.06-0.5,0.06-0.56c0-0.06-0.01-0.11-0.08-0.11
		c-0.05,0-0.11,0.03-0.2,0.05c-0.13,0.03-0.43,0.05-0.69,0.05c-0.2,0-3.33,0.01-3.6,0.01c-0.56,0-1.17-0.04-1.9-0.04
		c-0.21,0-0.28,0.04-0.28,0.11c0,0.08,0.06,0.13,0.23,0.14c0.13,0.01,0.31,0.01,0.42,0.04c0.32,0.08,0.43,0.29,0.46,0.66
		c0.03,0.41,0.04,0.66,0.04,2.75v2.25c0,0.79-0.01,1.55-0.04,2.06c-0.03,0.81-0.08,1.29-0.43,1.34c-0.1,0.03-0.23,0.04-0.38,0.05
		c-0.19,0-0.25,0.06-0.25,0.13c0,0.09,0.08,0.13,0.3,0.13c0.7,0,1.24-0.04,1.84-0.04c1.34,0,2.3,0.08,4.05,0.08
		c0.47,0,0.56-0.01,0.65-0.34c0.06-0.24,0.2-1.21,0.2-1.71C159.58,69.65,159.57,69.52,159.47,69.52z"/>
	<path class="st0" d="M171.07,65.86l-0.65-0.43c-0.87-0.59-1.02-1.09-1.02-1.52c0-0.59,0.38-1.18,1.43-1.18
		c0.92,0,1.5,0.43,1.75,0.84c0.18,0.29,0.22,0.61,0.23,0.74c0.03,0.21,0.08,0.24,0.14,0.24c0.1,0,0.14-0.09,0.14-0.32
		c0-1.14,0.03-1.39,0.05-1.8c0-0.1-0.04-0.14-0.17-0.18c-0.2-0.06-0.42-0.11-0.62-0.15c-0.54-0.1-0.92-0.13-1.47-0.13
		c-2.04,0-3.25,1.19-3.25,2.66c0,1.12,0.43,2.02,1.99,3.12l0.79,0.55c1.08,0.74,1.19,1.19,1.19,1.73c0,0.55-0.37,1.18-1.58,1.18
		c-0.99,0-1.95-0.6-2.17-1.65c-0.04-0.15-0.05-0.27-0.06-0.4c-0.01-0.1-0.03-0.22-0.12-0.22c-0.08,0-0.13,0.08-0.15,0.31
		c-0.04,0.36-0.08,0.84-0.08,1.88c0,0.25,0.06,0.42,0.28,0.51c0.5,0.23,1.17,0.36,2.13,0.36c0.66,0,1.48-0.1,2.22-0.55
		c0.96-0.56,1.35-1.43,1.35-2.31C173.42,67.85,172.86,67.05,171.07,65.86z"/>
	<path class="st0" d="M56.33,11.9c0-0.81-0.14-1.62-0.33-2.38c0.91-0.14,1.81-0.24,2.81-0.29l0.1-0.95c-1.1,0.1-2.14,0.24-3.19,0.43
		C53.95,3.95,48.04,0,36.62,0C14.14,0,1.1,11.76,1.1,19c0,3.19,2.57,5.48,7.95,5.48c12.67,0,23.95-6.95,28.71-18.33l-0.48-0.19
		c-3.43,7.1-20.9,17.57-29.47,17.57c-4,0-5.91-1.9-5.91-4.57c0-6.66,12-18.33,34.14-18.33c11.38,0,16.91,3.81,18.33,8.33
		C34.76,13.57,27.29,39.09,4.91,39.09c-2.38,0-4.43-0.24-4.43-0.24L0,39.43c4,0.52,7.38,0.76,10.38,0.76
		c10.91,0,16.05-3.52,22.19-11.76c0.95-1.24,1.9-2.66,2.95-4.1c1.53,0.29,3,0.38,4.43,0.38C49.95,24.71,56.33,18.24,56.33,11.9z
		 M38.9,24.05c-1,0-2-0.05-3-0.19c4.33-5.9,9.81-12.33,18.71-14.14c0.1,0.57,0.19,1.19,0.19,1.77
		C54.81,17.62,48.28,24.05,38.9,24.05z"/>
	<path class="st0" d="M199.03,33.28c-0.54-4.59-3.88-8.08-9.08-7.46c-2.41,0.29-5.25,1.44-8.38,3.78l0.43,0.38
		c2.86-2.16,5.37-3.23,7.5-3.48c4.3-0.51,6.9,2.39,7.37,6.32c0.79,6.62-4.36,16.15-17.51,17.71c-7.14,0.85-13.78-2.58-14.44-8.16
		c-0.3-2.55,1.48-6.94,4.22-10.14c6.44-7.53,15.95-17.91,21.43-23.07l-0.18-0.26c0,0-2.57,0.54-4.7,0.8
		c-3.13,3.97-7.66,8.63-12.35,13.88l-1.79,2.21c-0.32-0.01-0.62-0.02-0.84-0.02c-7.53-0.03-12.89,2.91-16.08,6.15
		c-4.01,2.64-7.55,5.09-9.82,6.37c-1.24,0.72-3.33,1.38-4.86,1.38c-1.09,0-1.9-0.33-1.9-1.33c0-1.19,2.05-3.81,4.62-6.33
		c6.33-0.95,10.71-4.28,10.71-5.81c0-0.48-0.38-0.76-1.29-0.76c-5.72,0-10.56,3.23-13.42,6.61c-6.34,4.2-11.18,7.63-12.92,7.63
		c-0.48,0-0.71-0.23-0.71-0.76c0-2.86,11.1-7.76,11.1-12.33c0-1.43-0.43-2.86-0.43-4.28c0-0.19,0.1-0.43,0.38-0.57
		c0.76-0.33,2.29-1.33,2.29-2.38c0-0.57-0.43-0.86-1-0.86c-1,0-2.33,0.9-2.33,2.86v0.9c-0.93,1.16-3.84,4.15-12.1,9.62l0,0
		c-6.47,4.28-11.43,7.81-13.19,7.81c-0.48,0-0.71-0.23-0.71-0.76c0-2.86,11.1-7.76,11.1-12.33c0-1.43-0.43-2.86-0.43-4.28
		c0-0.19,0.1-0.43,0.38-0.57c0.76-0.33,2.29-1.33,2.29-2.38c0-0.57-0.43-0.86-1-0.86c-1,0-2.33,0.9-2.33,2.86v0.9
		c-0.93,1.16-3.84,4.15-12.1,9.62l0,0c-4.05,2.66-7.62,5.14-9.9,6.43c-1.24,0.72-3.33,1.38-4.86,1.38c-1.09,0-1.9-0.33-1.9-1.33
		c0-1.19,2.05-3.81,4.62-6.33c6.33-0.95,10.71-4.28,10.71-5.81c0-0.48-0.38-0.76-1.29-0.76c-5.09,0-9.48,2.56-12.4,5.51
		c-2.48,1.73-5.11,4.72-11.41,5.34c8.83-10.95,10.64-23.31,28.01-30.04c0.41-0.14,0.83-0.28,1.24-0.39
		c0.31-0.09,0.62-0.15,0.93-0.19c0.15-0.02,0.31-0.03,0.46-0.03c0.1,0,0.23,0.02,0.3,0.04c0,0.01,0,0.02-0.01,0.03
		c-0.03,0.06-0.07,0.12-0.12,0.18c-0.1,0.12-0.21,0.24-0.33,0.36c-0.24,0.23-0.5,0.45-0.77,0.67c-0.53,0.43-1.08,0.84-1.65,1.24
		l0.03,0.04c0.6-0.34,1.19-0.7,1.77-1.09c0.29-0.2,0.57-0.4,0.84-0.63c0.14-0.11,0.27-0.23,0.39-0.37c0.06-0.07,0.12-0.15,0.18-0.24
		c0.04-0.08,0.13-0.24,0.02-0.44l-0.01-0.03l-0.02-0.01c-0.25-0.16-0.4-0.14-0.59-0.17c-0.18-0.01-0.35,0-0.52,0.01
		c-0.34,0.04-0.67,0.09-1,0.17c-0.65,0.15-1.28,0.37-1.89,0.62c-0.03,0.01-0.06,0.03-0.09,0.04C93.94,11.09,89.02,20.96,79.6,32.53
		l-2.52,3.12c-0.41-0.34-0.92-1.09-1.07-1.7l2.6-1.87c-0.08-0.76-0.57-0.88-1.15-0.83c-1.49,0.15-2.11,1.21-2.05,2.39
		c-2.92,1.95-5.45,3.65-7.21,4.64c-1.24,0.72-3.33,1.38-4.86,1.38c-1.09,0-1.9-0.33-1.9-1.33c0-1.19,2.05-3.81,4.62-6.33
		c6.33-0.95,10.71-4.28,10.71-5.81c0-0.48-0.38-0.76-1.29-0.76c-4.63,0-8.69,2.12-11.58,4.72c-6.38,4.22-14.54,9.51-16.23,9.51
		c-0.47,0-0.71-0.23-0.71-0.76c0-2.86,11.1-7.76,11.1-12.33c0-1.43-0.43-2.86-0.43-4.28c0-0.19,0.1-0.43,0.38-0.57
		c0.76-0.33,2.28-1.33,2.28-2.38c0-0.57-0.43-0.86-1-0.86c-1,0-2.33,0.9-2.33,2.86v0.9c-0.95,1.19-3.95,4.28-12.67,10l0.33,0.28
		c8.14-5.33,11.33-8.57,12.38-9.81c0.1,0.9,0.28,1.71,0.28,2.05c0,2.19-11.81,8.76-11.81,13.38c0,1.48,0.57,2.09,1.57,2.09
		c2.18,0,9.38-4.64,15.39-8.61c-1.98,2.2-3.14,4.52-3.14,6.09c0,1.81,1.48,2.53,3.33,2.53c1.81,0,4.05-0.67,5.76-1.57
		c2-1.07,4.39-2.72,7.09-4.55c0.15,0.75,0.53,1.48,1.17,2.01c-6.63,7.91-14.2,15.29-26.02,16.64c-0.17,0.01-0.32,0.03-0.49,0.04
		c-0.44,0.02-0.9,0.07-1.36,0.08c-0.46,0.02-0.93,0.03-1.39,0.01c-0.23,0-0.46-0.04-0.68-0.06c-0.21-0.03-0.4-0.07-0.59-0.17
		c-0.4-0.21-0.53-0.43-0.28-0.76c0.24-0.31,0.6-0.56,0.93-0.77c0.34-0.21,0.68-0.39,0.99-0.55c1.27-0.63,2.18-0.94,2.18-0.94
		l-0.02-0.06c0,0-0.93,0.23-2.27,0.77c-0.33,0.14-0.69,0.29-1.06,0.49c-0.37,0.2-0.76,0.42-1.09,0.81
		c-0.16,0.18-0.33,0.49-0.22,0.84c0.11,0.32,0.36,0.49,0.57,0.63c0.21,0.15,0.49,0.23,0.74,0.28c0.24,0.04,0.49,0.09,0.74,0.1
		c0.49,0.06,0.97,0.06,1.45,0.06c0.48,0.02,0.94-0.06,1.39-0.09c0.24-0.01,0.48-0.05,0.7-0.08c0.23-0.02,0.47-0.03,0.7-0.05
		c9.48-0.93,17.93-6.01,25.28-13.05c1.18-1.17,2.22-2.27,3.2-3.47c5.19-0.51,7.98-2,9.76-3.36c-1.09,1.6-1.71,3.14-1.71,4.28
		c0,1.81,1.48,2.53,3.33,2.53c1.81,0,4.05-0.67,5.76-1.57c2.57-1.38,5.8-3.72,9.48-6.15l0,0c8.14-5.33,11.33-8.57,12.38-9.81
		c0.1,0.9,0.28,1.71,0.28,2.05c0,2.19-11.81,8.76-11.81,13.38c0,1.48,0.57,2.09,1.57,2.09c2.42,0,7.44-3.64,13.57-7.72l0,0
		c8.14-5.33,11.33-8.57,12.38-9.81c0.1,0.9,0.28,1.71,0.28,2.05c0,2.19-11.81,8.76-11.81,13.38c0,1.48,0.57,2.09,1.57,2.09
		c2.3,0,6.96-3.3,12.7-7.14c-1.24,1.72-1.94,3.39-1.94,4.61c0,1.81,1.48,2.53,3.33,2.53c1.81,0,4.05-0.67,5.76-1.57
		c2.34-1.26,5.24-3.32,8.52-5.51c-1.6,1.98-2.43,3.94-2.43,5.29c-0.01,1.1,0.51,1.76,1.52,1.77c2.75,0.01,8.98-3.93,13.1-6.88
		c-1.56,2.88-1.97,5.87-1.67,8.37c0.75,6.34,6.81,10.51,15.93,9.42C194.47,49.4,199.85,40.13,199.03,33.28z M152.08,25.81
		c0.57,0,0.81,0.14,0.81,0.43c0,1.24-4.81,4.62-9.86,5.38C146.22,28.62,150.08,25.81,152.08,25.81z M104.31,25.81
		c0.57,0,0.81,0.14,0.81,0.43c0,1.24-4.81,4.62-9.86,5.38C98.45,28.62,102.31,25.81,104.31,25.81z M75.49,25.81
		c0.57,0,0.81,0.14,0.81,0.43c0,1.24-4.81,4.62-9.86,5.38C69.63,28.62,73.49,25.81,75.49,25.81z M153.11,39.69
		c-0.33,0-0.52-0.14-0.52-0.43c0.01-2.33,10.91-13.1,17.67-13.07c0.37,0,0.67,0.01,0.93,0.01l-4.6,5.65
		c-0.09,0.12-0.15,0.25-0.24,0.37C162.14,35.3,155.65,39.7,153.11,39.69z"/>
	<path class="st0" d="M109.56,69.52c-0.08,0-0.13,0.08-0.15,0.23c-0.11,0.59-0.27,0.87-0.63,1.01c-0.36,0.14-0.85,0.15-1.19,0.15
		c-1.41,0-1.59-0.21-1.61-1.1c-0.01-0.49,0-1.24,0-1.67v-0.88c0-0.1,0.01-0.17,0.08-0.17c0.39,0,1.44,0.03,1.8,0.05
		c0.63,0.04,0.8,0.26,0.85,0.63c0.01,0.1,0.03,0.19,0.04,0.3c0.03,0.11,0.05,0.2,0.14,0.2c0.08,0,0.11-0.08,0.11-0.24
		c0-0.14,0-0.77,0.01-1.06c0.04-0.5,0.1-0.96,0.1-1.09c0-0.08,0-0.15-0.08-0.15c-0.06,0-0.1,0.05-0.18,0.17
		c-0.14,0.23-0.31,0.27-0.93,0.3c-0.46,0.01-1.49,0.03-1.85,0.01c-0.09,0-0.1-0.06-0.1-0.15v-2.81c0-0.09,0.03-0.13,0.1-0.13
		c0.38,0,1.49,0.03,1.91,0.06c0.61,0.05,0.78,0.22,0.84,0.51c0.05,0.18,0.06,0.31,0.06,0.45c0.01,0.11,0.06,0.18,0.13,0.18
		c0.08,0,0.13-0.08,0.13-0.18c0.04-0.66,0.06-1.11,0.1-1.37c0.04-0.37,0.06-0.5,0.06-0.56c0-0.06-0.01-0.11-0.08-0.11
		c-0.05,0-0.11,0.03-0.2,0.05c-0.13,0.03-0.43,0.05-0.69,0.05c-0.2,0-3.33,0.01-3.6,0.01c-0.56,0-1.17-0.04-1.9-0.04
		c-0.21,0-0.28,0.04-0.28,0.11c0,0.08,0.06,0.13,0.23,0.14c0.13,0.01,0.31,0.01,0.42,0.04c0.32,0.08,0.43,0.29,0.46,0.66
		c0.03,0.41,0.04,0.66,0.04,2.75v2.25c0,0.79-0.01,1.55-0.04,2.06c-0.03,0.81-0.08,1.29-0.43,1.34c-0.1,0.03-0.23,0.04-0.38,0.05
		c-0.19,0-0.25,0.06-0.25,0.13c0,0.09,0.08,0.13,0.31,0.13c0.7,0,1.24-0.04,1.84-0.04c1.34,0,2.3,0.08,4.05,0.08
		c0.47,0,0.56-0.01,0.65-0.34c0.06-0.24,0.2-1.21,0.2-1.71C109.67,69.65,109.66,69.52,109.56,69.52z"/>
</g>
<path class="st0" d="M195.25,11.55c-0.34,0-0.68-0.12-0.83-0.42c-0.06-0.12-0.07-0.25-0.08-0.38l-0.31,0.16
	c0.06,0.3,0.2,0.54,0.45,0.71c0.17,0.11,0.42,0.2,0.77,0.2c0.84,0,1.23-0.52,1.23-0.98c0-0.62-0.58-0.81-0.76-0.87
	c-0.1-0.04-0.57-0.16-0.66-0.19c-0.19-0.06-0.55-0.17-0.55-0.57c0-0.44,0.42-0.59,0.77-0.59c0.28,0,0.55,0.1,0.71,0.33
	c0.07,0.1,0.11,0.21,0.14,0.29l0.29-0.16c-0.07-0.18-0.29-0.72-1.13-0.72c-0.51,0-1.08,0.21-1.08,0.85c0,0.61,0.52,0.78,0.99,0.9
	c0.43,0.11,0.62,0.16,0.77,0.28c0.09,0.07,0.2,0.2,0.2,0.44C196.16,11.2,195.88,11.55,195.25,11.55z"/>
<polygon class="st0" points="199.85,8.46 198.79,11.24 197.68,8.46 197.31,8.46 197.31,11.73 197.62,11.73 197.58,8.95 
	198.67,11.73 198.88,11.73 199.96,8.95 199.93,11.73 200.23,11.73 200.23,8.46 "/>
</svg>
