<svg width="16" height="16" viewBox="0 0 16 16" fill="none" xmlns="http://www.w3.org/2000/svg">
<path fill-rule="evenodd" clip-rule="evenodd" d="M14.2602 2.84267C14.9456 3.02718 15.4859 3.56754 15.6704 4.25288C16.0131 5.50493 15.9999 8.11447 15.9999 8.11447C15.9999 8.11447 15.9999 10.7108 15.6704 11.9629C15.4859 12.6482 14.9456 13.1886 14.2602 13.3731C13.0082 13.7026 7.99997 13.7026 7.99997 13.7026C7.99997 13.7026 3.00493 13.7026 1.7397 13.3599C1.05436 13.1754 0.514001 12.635 0.329488 11.9497C0 10.7108 0 8.10129 0 8.10129C0 8.10129 0 5.50493 0.329488 4.25288C0.514001 3.56754 1.06754 3.014 1.7397 2.82949C2.99175 2.5 7.99997 2.5 7.99997 2.5C7.99997 2.5 13.0082 2.5 14.2602 2.84267ZM10.5699 8.10129L6.40521 10.5V5.70262L10.5699 8.10129Z" fill="#F9F7F7"/>
</svg>
